STARTFONT 2.1
FONT -DIGITAL-VWSVT0-Medium-R-Normal--40-380-75-75-C-200-ISO8859-1
SIZE 38 75 75
FONTBOUNDINGBOX 20 40 0 -10

STARTPROPERTIES 25
FONTNAME_REGISTRY ""
FAMILY_NAME "VWSVT0"
FOUNDRY_NAME "DIGITAL"
WEIGHT_NAME "Medium"
SETWIDTH_NAME "Normal"
SLANT "R"
ADD_STYLE_NAME ""
PIXEL_SIZE 40
POINT_SIZE 380
RESOLUTION_X 75
RESOLUTION_Y 75
SPACING "C"
AVERAGE_WIDTH 200
CHARSET_REGISTRY "ISO8859"
CHARSET_ENCODING "1"
CHARSET_COLLECTIONS "ASCII ISO8859-1"
FULL_NAME "VWSVT0"
COPYRIGHT "Copyright ©1990 by Digital Equipment Corporation"
CAP_HEIGHT 21
X_HEIGHT 16
WEIGHT 10
QUAD_WIDTH 20
DEFAULT_CHAR 0
FONT_DESCENT 10
FONT_ASCENT 30
ENDPROPERTIES

CHARS 193

STARTCHAR char_0x0020
ENCODING 32
SWIDTH 1870 0
DWIDTH 20 0
BBX 20 40 0 -10
BITMAP
000000
000000
000000
000000
000000
000000
000000
000000
000000
000000
000000
000000
000000
000000
000000
000000
000000
000000
000000
000000
000000
000000
000000
000000
000000
000000
000000
000000
000000
000000
000000
000000
000000
000000
000000
000000
000000
000000
000000
000000
ENDCHAR

STARTCHAR char_0x0021
ENCODING 33
SWIDTH 1870 0
DWIDTH 20 0
BBX 20 40 0 -10
BITMAP
000000
000000
000000
000000
000000
000000
006000
00F000
00F000
00F000
00F000
00F000
00F000
00F000
00F000
00F000
00F000
00F000
00F000
00F000
00F000
00F000
00F000
006000
000000
000000
006000
00F000
00F000
006000
000000
000000
000000
000000
000000
000000
000000
000000
000000
000000
ENDCHAR

STARTCHAR char_0x0022
ENCODING 34
SWIDTH 1870 0
DWIDTH 20 0
BBX 20 40 0 -10
BITMAP
000000
000000
0F0F00
0F0F00
0F0F00
0F0F00
0F0F00
0F0F00
0F0F00
070E00
000000
000000
000000
000000
000000
000000
000000
000000
000000
000000
000000
000000
000000
000000
000000
000000
000000
000000
000000
000000
000000
000000
000000
000000
000000
000000
000000
000000
000000
000000
ENDCHAR

STARTCHAR char_0x0023
ENCODING 35
SWIDTH 1870 0
DWIDTH 20 0
BBX 20 40 0 -10
BITMAP
000000
000000
000000
000000
000000
000000
000000
000000
0F0F00
0F0F00
0F0F00
0F0F00
0F0F00
0F0F00
3FFFC0
3FFFC0
0F0F00
0F0F00
0F0F00
0F0F00
3FFFC0
3FFFC0
0F0F00
0F0F00
0F0F00
0F0F00
0F0F00
0F0F00
000000
000000
000000
000000
000000
000000
000000
000000
000000
000000
000000
000000
ENDCHAR

STARTCHAR char_0x0024
ENCODING 36
SWIDTH 1870 0
DWIDTH 20 0
BBX 20 40 0 -10
BITMAP
000000
000000
000000
000000
000000
000000
000000
000000
003000
003000
03FF00
07FF80
0FB7C0
0F33C0
0F33C0
0F33C0
0FB000
0FF000
07FE00
01FF80
003FC0
0037C0
0F33C0
0F33C0
0F33C0
0FB7C0
07FF80
03FF00
003000
003000
000000
000000
000000
000000
000000
000000
000000
000000
000000
000000
ENDCHAR

STARTCHAR char_0x0025
ENCODING 37
SWIDTH 1870 0
DWIDTH 20 0
BBX 20 40 0 -10
BITMAP
000000
000000
000000
000000
000000
000000
000000
000000
1E0780
3F0780
798F00
798F00
799E00
799E00
79BC00
79BC00
3F7800
1E7800
00F000
00F000
01E780
01EFC0
03DE60
03DE60
079E60
079E60
0F1E60
0F1E60
1E0FC0
1E0780
000000
000000
000000
000000
000000
000000
000000
000000
000000
000000
ENDCHAR

STARTCHAR char_0x0026
ENCODING 38
SWIDTH 1870 0
DWIDTH 20 0
BBX 20 40 0 -10
BITMAP
000000
000000
000000
000000
000000
000000
000000
000000
03C000
07E000
0F3000
0F3000
0F3000
0F3000
0F3000
0F3000
07E000
03C000
03E000
07F000
0E78C0
1C3DC0
3C1F00
3C0F00
3C0700
3C0780
3C07C0
3E0DE0
1FF8E0
0FF060
000000
000000
000000
000000
000000
000000
000000
000000
000000
000000
ENDCHAR

STARTCHAR char_0x0027
ENCODING 39
SWIDTH 1870 0
DWIDTH 20 0
BBX 20 40 0 -10
BITMAP
000000
000000
003800
007800
00F000
01E000
03C000
038000
000000
000000
000000
000000
000000
000000
000000
000000
000000
000000
000000
000000
000000
000000
000000
000000
000000
000000
000000
000000
000000
000000
000000
000000
000000
000000
000000
000000
000000
000000
000000
000000
ENDCHAR

STARTCHAR char_0x0028
ENCODING 40
SWIDTH 1870 0
DWIDTH 20 0
BBX 20 40 0 -10
BITMAP
000000
000000
000000
000000
000000
000000
0001C0
0003C0
000F00
001E00
003C00
003C00
007800
007800
00F000
00F000
00F000
00F000
00F000
00F000
00F000
00F000
00F000
00F000
007800
007800
003C00
003C00
001E00
000F00
0003C0
0001C0
000000
000000
000000
000000
000000
000000
000000
000000
ENDCHAR

STARTCHAR char_0x0029
ENCODING 41
SWIDTH 1870 0
DWIDTH 20 0
BBX 20 40 0 -10
BITMAP
000000
000000
000000
000000
000000
000000
380000
3C0000
0F0000
078000
03C000
03C000
01E000
01E000
00F000
00F000
00F000
00F000
00F000
00F000
00F000
00F000
00F000
00F000
01E000
01E000
03C000
03C000
078000
0F0000
3C0000
380000
000000
000000
000000
000000
000000
000000
000000
000000
ENDCHAR

STARTCHAR char_0x002A
ENCODING 42
SWIDTH 1870 0
DWIDTH 20 0
BBX 20 40 0 -10
BITMAP
000000
000000
000000
000000
000000
000000
000000
000000
000000
000000
006000
006000
186180
1C6380
0E6700
076E00
03FC00
01F800
7FFFE0
7FFFE0
01F800
03FC00
076E00
0E6700
1C6380
186180
006000
006000
000000
000000
000000
000000
000000
000000
000000
000000
000000
000000
000000
000000
ENDCHAR

STARTCHAR char_0x002B
ENCODING 43
SWIDTH 1870 0
DWIDTH 20 0
BBX 20 40 0 -10
BITMAP
000000
000000
000000
000000
000000
000000
000000
000000
000000
000000
00F000
00F000
00F000
00F000
00F000
00F000
00F000
00F000
3FFFC0
3FFFC0
00F000
00F000
00F000
00F000
00F000
00F000
00F000
00F000
000000
000000
000000
000000
000000
000000
000000
000000
000000
000000
000000
000000
ENDCHAR

STARTCHAR char_0x002C
ENCODING 44
SWIDTH 1870 0
DWIDTH 20 0
BBX 20 40 0 -10
BITMAP
000000
000000
000000
000000
000000
000000
000000
000000
000000
000000
000000
000000
000000
000000
000000
000000
000000
000000
000000
000000
000000
000000
000000
000000
000000
000000
006000
00F000
00F000
007000
00E000
01C000
000000
000000
000000
000000
000000
000000
000000
000000
ENDCHAR

STARTCHAR char_0x002D
ENCODING 45
SWIDTH 1870 0
DWIDTH 20 0
BBX 20 40 0 -10
BITMAP
000000
000000
000000
000000
000000
000000
000000
000000
000000
000000
000000
000000
000000
000000
000000
000000
000000
000000
3FFFC0
3FFFC0
000000
000000
000000
000000
000000
000000
000000
000000
000000
000000
000000
000000
000000
000000
000000
000000
000000
000000
000000
000000
ENDCHAR

STARTCHAR char_0x002E
ENCODING 46
SWIDTH 1870 0
DWIDTH 20 0
BBX 20 40 0 -10
BITMAP
000000
000000
000000
000000
000000
000000
000000
000000
000000
000000
000000
000000
000000
000000
000000
000000
000000
000000
000000
000000
000000
000000
000000
000000
000000
000000
006000
00F000
00F000
006000
000000
000000
000000
000000
000000
000000
000000
000000
000000
000000
ENDCHAR

STARTCHAR char_0x002F
ENCODING 47
SWIDTH 1870 0
DWIDTH 20 0
BBX 20 40 0 -10
BITMAP
000000
000000
000000
000000
000000
000000
000000
000000
000780
000780
000F00
000F00
001E00
001E00
003C00
003C00
007800
007800
00F000
00F000
01E000
01E000
03C000
03C000
078000
078000
0F0000
0F0000
1E0000
1E0000
000000
000000
000000
000000
000000
000000
000000
000000
000000
000000
ENDCHAR

STARTCHAR char_0x0030
ENCODING 48
SWIDTH 1870 0
DWIDTH 20 0
BBX 20 40 0 -10
BITMAP
000000
000000
000000
000000
000000
000000
000000
000000
01F800
03FC00
070E00
0E0700
0E0700
1E0780
1E0780
1E0780
1E0780
1E0780
1E0780
1E0780
1E0780
1E0780
1E0780
1E0780
1E0780
0E0700
0E0700
070E00
03FC00
01F800
000000
000000
000000
000000
000000
000000
000000
000000
000000
000000
ENDCHAR

STARTCHAR char_0x0031
ENCODING 49
SWIDTH 1870 0
DWIDTH 20 0
BBX 20 40 0 -10
BITMAP
000000
000000
000000
000000
000000
000000
000000
000000
00F000
01F000
03F000
07F000
0FF000
00F000
00F000
00F000
00F000
00F000
00F000
00F000
00F000
00F000
00F000
00F000
00F000
00F000
00F000
00F000
0FFF00
0FFF00
000000
000000
000000
000000
000000
000000
000000
000000
000000
000000
ENDCHAR

STARTCHAR char_0x0032
ENCODING 50
SWIDTH 1870 0
DWIDTH 20 0
BBX 20 40 0 -10
BITMAP
000000
000000
000000
000000
000000
000000
000000
000000
03FE00
0FFF00
1E0F80
1E0780
1E0780
0C0780
000780
000F80
001F00
003E00
007C00
00F800
01F000
03E000
07C000
0F8000
1F0080
1E0080
1E0180
1E0380
1FFF80
1FFF80
000000
000000
000000
000000
000000
000000
000000
000000
000000
000000
ENDCHAR

STARTCHAR char_0x0033
ENCODING 51
SWIDTH 1870 0
DWIDTH 20 0
BBX 20 40 0 -10
BITMAP
000000
000000
000000
000000
000000
000000
000000
000000
07FE00
0FFF00
1E0F80
1E0780
1E0780
1C0780
000780
000780
000780
000F00
01FE00
01FE00
000F00
000780
000780
000780
1C0780
1E0780
1E0780
1E0F80
0FFF00
07FE00
000000
000000
000000
000000
000000
000000
000000
000000
000000
000000
ENDCHAR

STARTCHAR char_0x0034
ENCODING 52
SWIDTH 1870 0
DWIDTH 20 0
BBX 20 40 0 -10
BITMAP
000000
000000
000000
000000
000000
000000
000000
000000
001E00
001E00
003E00
003E00
007E00
007E00
00FE00
00FE00
01DE00
01DE00
039E00
039E00
071E00
071E00
0E1E00
0E1E00
1FFF80
1FFF80
001E00
001E00
001E00
001E00
000000
000000
000000
000000
000000
000000
000000
000000
000000
000000
ENDCHAR

STARTCHAR char_0x0035
ENCODING 53
SWIDTH 1870 0
DWIDTH 20 0
BBX 20 40 0 -10
BITMAP
000000
000000
000000
000000
000000
000000
000000
000000
1FFF80
1FFF80
1E0000
1E0000
1E0000
1E0000
1E0000
1E0000
1FFE00
1FFF00
000F80
000780
000780
000780
1C0780
1E0780
1E0780
1E0780
1E0780
1F0F80
0FFF00
07FE00
000000
000000
000000
000000
000000
000000
000000
000000
000000
000000
ENDCHAR

STARTCHAR char_0x0036
ENCODING 54
SWIDTH 1870 0
DWIDTH 20 0
BBX 20 40 0 -10
BITMAP
000000
000000
000000
000000
000000
000000
000000
000000
07FE00
0FFF00
1F0780
1E0780
1E0780
1E0380
1E0000
1E0000
1FFE00
1FFF00
1F0F80
1E0780
1E0780
1E0780
1E0780
1E0780
1E0780
1E0780
1E0780
1F0F80
0FFF00
07FE00
000000
000000
000000
000000
000000
000000
000000
000000
000000
000000
ENDCHAR

STARTCHAR char_0x0037
ENCODING 55
SWIDTH 1870 0
DWIDTH 20 0
BBX 20 40 0 -10
BITMAP
000000
000000
000000
000000
000000
000000
000000
000000
0FFF80
1FFF80
1E0780
1E0780
1E0780
1C0780
000F00
000F00
001E00
001E00
003C00
003C00
007800
007800
00F000
00F000
01E000
01E000
03C000
03C000
078000
078000
000000
000000
000000
000000
000000
000000
000000
000000
000000
000000
ENDCHAR

STARTCHAR char_0x0038
ENCODING 56
SWIDTH 1870 0
DWIDTH 20 0
BBX 20 40 0 -10
BITMAP
000000
000000
000000
000000
000000
000000
000000
000000
07FE00
0FFF00
1F0F80
1E0780
1E0780
1E0780
1E0780
0F0F00
07FE00
07FE00
0F0F00
1E0780
1E0780
1E0780
1E0780
1E0780
1E0780
1E0780
1E0780
1F0F80
0FFF00
07FE00
000000
000000
000000
000000
000000
000000
000000
000000
000000
000000
ENDCHAR

STARTCHAR char_0x0039
ENCODING 57
SWIDTH 1870 0
DWIDTH 20 0
BBX 20 40 0 -10
BITMAP
000000
000000
000000
000000
000000
000000
000000
000000
07FE00
0FFF00
1F0F80
1E0780
1E0780
1E0780
1E0780
1E0780
1E0780
1E0780
1E0780
1F0F80
0FFF80
07FF80
000780
000780
1C0780
1E0780
1E0700
1E0F00
0FFE00
07FC00
000000
000000
000000
000000
000000
000000
000000
000000
000000
000000
ENDCHAR

STARTCHAR char_0x003A
ENCODING 58
SWIDTH 1870 0
DWIDTH 20 0
BBX 20 40 0 -10
BITMAP
000000
000000
000000
000000
000000
000000
000000
000000
000000
000000
000000
000000
000000
000000
006000
00F000
00F000
006000
000000
000000
000000
000000
000000
000000
000000
000000
006000
00F000
00F000
006000
000000
000000
000000
000000
000000
000000
000000
000000
000000
000000
ENDCHAR

STARTCHAR char_0x003B
ENCODING 59
SWIDTH 1870 0
DWIDTH 20 0
BBX 20 40 0 -10
BITMAP
000000
000000
000000
000000
000000
000000
000000
000000
000000
000000
000000
000000
000000
000000
006000
00F000
00F000
006000
000000
000000
000000
000000
000000
000000
000000
000000
006000
00F000
00F000
007000
00E000
01C000
000000
000000
000000
000000
000000
000000
000000
000000
ENDCHAR

STARTCHAR char_0x003C
ENCODING 60
SWIDTH 1870 0
DWIDTH 20 0
BBX 20 40 0 -10
BITMAP
000000
000000
000000
000000
000000
000000
000000
000000
000780
000F00
001E00
003C00
007800
00F000
01E000
03C000
078000
0F0000
1E0000
1E0000
0F0000
078000
03C000
01E000
00F000
007800
003C00
001E00
000F00
000780
000000
000000
000000
000000
000000
000000
000000
000000
000000
000000
ENDCHAR

STARTCHAR char_0x003D
ENCODING 61
SWIDTH 1870 0
DWIDTH 20 0
BBX 20 40 0 -10
BITMAP
000000
000000
000000
000000
000000
000000
000000
000000
000000
000000
000000
000000
000000
000000
3FFFC0
3FFFC0
000000
000000
000000
000000
3FFFC0
3FFFC0
000000
000000
000000
000000
000000
000000
000000
000000
000000
000000
000000
000000
000000
000000
000000
000000
000000
000000
ENDCHAR

STARTCHAR char_0x003E
ENCODING 62
SWIDTH 1870 0
DWIDTH 20 0
BBX 20 40 0 -10
BITMAP
000000
000000
000000
000000
000000
000000
000000
000000
1E0000
0F0000
078000
03C000
01E000
00F000
007800
003C00
001E00
000F00
000780
000780
000F00
001E00
003C00
007800
00F000
01E000
03C000
078000
0F0000
1E0000
000000
000000
000000
000000
000000
000000
000000
000000
000000
000000
ENDCHAR

STARTCHAR char_0x003F
ENCODING 63
SWIDTH 1870 0
DWIDTH 20 0
BBX 20 40 0 -10
BITMAP
000000
000000
000000
000000
000000
000000
07FC00
0FFF00
1E0F80
1C07C0
3C03C0
3C03C0
3C03C0
1803C0
0003C0
0003C0
000780
000780
000F00
001E00
003C00
007800
007000
006000
000000
000000
006000
00F000
00F000
006000
000000
000000
000000
000000
000000
000000
000000
000000
000000
000000
ENDCHAR

STARTCHAR char_0x0040
ENCODING 64
SWIDTH 1870 0
DWIDTH 20 0
BBX 20 40 0 -10
BITMAP
000000
000000
000000
000000
000000
000000
000000
000000
0FFF00
1FFF80
3E07C0
3C03C0
3C03C0
3C03C0
3C3FC0
3C7FC0
3CF3C0
3CF3C0
3CF3C0
3CF3C0
3CF3C0
3CF3C0
3CF3C0
3CF3C0
3C7F80
3C3F00
3C0000
3E0000
1FFF00
0FFF00
000000
000000
000000
000000
000000
000000
000000
000000
000000
000000
ENDCHAR

STARTCHAR char_0x0041
ENCODING 65
SWIDTH 1870 0
DWIDTH 20 0
BBX 20 40 0 -10
BITMAP
000000
000000
000000
000000
000000
000000
000000
000000
006000
00F000
01F800
03FC00
07FE00
0F9F00
1F0F80
3E07C0
3C03C0
3C03C0
3C03C0
3C03C0
3FFFC0
3FFFC0
3C03C0
3C03C0
3C03C0
3C03C0
3C03C0
3C03C0
3C03C0
3C03C0
000000
000000
000000
000000
000000
000000
000000
000000
000000
000000
ENDCHAR

STARTCHAR char_0x0042
ENCODING 66
SWIDTH 1870 0
DWIDTH 20 0
BBX 20 40 0 -10
BITMAP
000000
000000
000000
000000
000000
000000
000000
000000
3FFF00
3FFF80
3C07C0
3C03C0
3C03C0
3C03C0
3C03C0
3C03C0
3C03C0
3C0780
3FFF00
3FFF00
3C0780
3C03C0
3C03C0
3C03C0
3C03C0
3C03C0
3C03C0
3C07C0
3FFF80
3FFF00
000000
000000
000000
000000
000000
000000
000000
000000
000000
000000
ENDCHAR

STARTCHAR char_0x0043
ENCODING 67
SWIDTH 1870 0
DWIDTH 20 0
BBX 20 40 0 -10
BITMAP
000000
000000
000000
000000
000000
000000
000000
000000
0FFF00
1FFF80
3E03C0
3C03C0
3C03C0
3C0180
3C0000
3C0000
3C0000
3C0000
3C0000
3C0000
3C0000
3C0000
3C0000
3C0000
3C0180
3C03C0
3C03C0
3E03C0
1FFF80
0FFF00
000000
000000
000000
000000
000000
000000
000000
000000
000000
000000
ENDCHAR

STARTCHAR char_0x0044
ENCODING 68
SWIDTH 1870 0
DWIDTH 20 0
BBX 20 40 0 -10
BITMAP
000000
000000
000000
000000
000000
000000
000000
000000
3FFE00
3FFF00
3C0780
3C0380
3C03C0
3C03C0
3C03C0
3C03C0
3C03C0
3C03C0
3C03C0
3C03C0
3C03C0
3C03C0
3C03C0
3C03C0
3C03C0
3C03C0
3C0380
3C0780
3FFF00
3FFE00
000000
000000
000000
000000
000000
000000
000000
000000
000000
000000
ENDCHAR

STARTCHAR char_0x0045
ENCODING 69
SWIDTH 1870 0
DWIDTH 20 0
BBX 20 40 0 -10
BITMAP
000000
000000
000000
000000
000000
000000
000000
000000
3FFFC0
3FFFC0
3C0000
3C0000
3C0000
3C0000
3C0000
3C0000
3C0000
3C0000
3FFC00
3FFC00
3C0000
3C0000
3C0000
3C0000
3C0000
3C0000
3C0000
3C0000
3FFFC0
3FFFC0
000000
000000
000000
000000
000000
000000
000000
000000
000000
000000
ENDCHAR

STARTCHAR char_0x0046
ENCODING 70
SWIDTH 1870 0
DWIDTH 20 0
BBX 20 40 0 -10
BITMAP
000000
000000
000000
000000
000000
000000
000000
000000
3FFFC0
3FFFC0
3C0000
3C0000
3C0000
3C0000
3C0000
3C0000
3C0000
3C0000
3FFC00
3FFC00
3C0000
3C0000
3C0000
3C0000
3C0000
3C0000
3C0000
3C0000
3C0000
3C0000
000000
000000
000000
000000
000000
000000
000000
000000
000000
000000
ENDCHAR

STARTCHAR char_0x0047
ENCODING 71
SWIDTH 1870 0
DWIDTH 20 0
BBX 20 40 0 -10
BITMAP
000000
000000
000000
000000
000000
000000
000000
000000
0FFF00
1FFF80
3E07C0
3C03C0
3C03C0
3C0180
3C0000
3C0000
3C0000
3C0000
3C3FC0
3C3FC0
3C03C0
3C03C0
3C03C0
3C03C0
3C03C0
3C03C0
3C03C0
3E07C0
1FFF80
0FFF00
000000
000000
000000
000000
000000
000000
000000
000000
000000
000000
ENDCHAR

STARTCHAR char_0x0048
ENCODING 72
SWIDTH 1870 0
DWIDTH 20 0
BBX 20 40 0 -10
BITMAP
000000
000000
000000
000000
000000
000000
000000
000000
3C03C0
3C03C0
3C03C0
3C03C0
3C03C0
3C03C0
3C03C0
3C03C0
3C03C0
3C03C0
3FFFC0
3FFFC0
3C03C0
3C03C0
3C03C0
3C03C0
3C03C0
3C03C0
3C03C0
3C03C0
3C03C0
3C03C0
000000
000000
000000
000000
000000
000000
000000
000000
000000
000000
ENDCHAR

STARTCHAR char_0x0049
ENCODING 73
SWIDTH 1870 0
DWIDTH 20 0
BBX 20 40 0 -10
BITMAP
000000
000000
000000
000000
000000
000000
000000
000000
3FFFC0
3FFFC0
00F000
00F000
00F000
00F000
00F000
00F000
00F000
00F000
00F000
00F000
00F000
00F000
00F000
00F000
00F000
00F000
00F000
00F000
3FFFC0
3FFFC0
000000
000000
000000
000000
000000
000000
000000
000000
000000
000000
ENDCHAR

STARTCHAR char_0x004A
ENCODING 74
SWIDTH 1870 0
DWIDTH 20 0
BBX 20 40 0 -10
BITMAP
000000
000000
000000
000000
000000
000000
000000
000000
00FFC0
00FFC0
000F00
000F00
000F00
000F00
000F00
000F00
000F00
000F00
000F00
000F00
000F00
000F00
000F00
000F00
180F00
3C0F00
3C0F00
3C1F00
1FFE00
0FFC00
000000
000000
000000
000000
000000
000000
000000
000000
000000
000000
ENDCHAR

STARTCHAR char_0x004B
ENCODING 75
SWIDTH 1870 0
DWIDTH 20 0
BBX 20 40 0 -10
BITMAP
000000
000000
000000
000000
000000
000000
000000
000000
3C03C0
3C0780
3C0F00
3C1E00
3C3C00
3C7800
3CF000
3DE000
3FC000
3F8000
3F0000
3F0000
3F8000
3FC000
3FE000
3DF000
3CF800
3C7C00
3C3E00
3C1F00
3C0F80
3C07C0
000000
000000
000000
000000
000000
000000
000000
000000
000000
000000
ENDCHAR

STARTCHAR char_0x004C
ENCODING 76
SWIDTH 1870 0
DWIDTH 20 0
BBX 20 40 0 -10
BITMAP
000000
000000
000000
000000
000000
000000
000000
000000
3C0000
3C0000
3C0000
3C0000
3C0000
3C0000
3C0000
3C0000
3C0000
3C0000
3C0000
3C0000
3C0000
3C0000
3C0000
3C0000
3C0000
3C0000
3C0000
3C0000
3FFFC0
3FFFC0
000000
000000
000000
000000
000000
000000
000000
000000
000000
000000
ENDCHAR

STARTCHAR char_0x004D
ENCODING 77
SWIDTH 1870 0
DWIDTH 20 0
BBX 20 40 0 -10
BITMAP
000000
000000
000000
000000
000000
000000
000000
000000
3C03C0
3C03C0
3E07C0
3E07C0
3F0FC0
3F0FC0
3F9FC0
3F9FC0
3DFBC0
3DFBC0
3CF3C0
3CF3C0
3C63C0
3C63C0
3C03C0
3C03C0
3C03C0
3C03C0
3C03C0
3C03C0
3C03C0
3C03C0
000000
000000
000000
000000
000000
000000
000000
000000
000000
000000
ENDCHAR

STARTCHAR char_0x004E
ENCODING 78
SWIDTH 1870 0
DWIDTH 20 0
BBX 20 40 0 -10
BITMAP
000000
000000
000000
000000
000000
000000
000000
000000
3C03C0
3C03C0
3E03C0
3E03C0
3F03C0
3F03C0
3D83C0
3D83C0
3CC3C0
3CC3C0
3C63C0
3C63C0
3C33C0
3C33C0
3C1BC0
3C1BC0
3C0FC0
3C0FC0
3C07C0
3C07C0
3C03C0
3C03C0
000000
000000
000000
000000
000000
000000
000000
000000
000000
000000
ENDCHAR

STARTCHAR char_0x004F
ENCODING 79
SWIDTH 1870 0
DWIDTH 20 0
BBX 20 40 0 -10
BITMAP
000000
000000
000000
000000
000000
000000
000000
000000
0FFF00
1FFF80
3E07C0
3C03C0
3C03C0
3C03C0
3C03C0
3C03C0
3C03C0
3C03C0
3C03C0
3C03C0
3C03C0
3C03C0
3C03C0
3C03C0
3C03C0
3C03C0
3C03C0
3E07C0
1FFF80
0FFF00
000000
000000
000000
000000
000000
000000
000000
000000
000000
000000
ENDCHAR

STARTCHAR char_0x0050
ENCODING 80
SWIDTH 1870 0
DWIDTH 20 0
BBX 20 40 0 -10
BITMAP
000000
000000
000000
000000
000000
000000
000000
000000
3FFE00
3FFF00
3C0780
3C03C0
3C03C0
3C03C0
3C03C0
3C03C0
3C03C0
3C03C0
3C03C0
3C0780
3FFF00
3FFE00
3C0000
3C0000
3C0000
3C0000
3C0000
3C0000
3C0000
3C0000
000000
000000
000000
000000
000000
000000
000000
000000
000000
000000
ENDCHAR

STARTCHAR char_0x0051
ENCODING 81
SWIDTH 1870 0
DWIDTH 20 0
BBX 20 40 0 -10
BITMAP
000000
000000
000000
000000
000000
000000
000000
000000
03FC00
0FFF00
1E0780
1C0380
3C03C0
3C03C0
3C03C0
3C03C0
3C03C0
3C03C0
3C03C0
3C03C0
3C03C0
3C03C0
3C03C0
3C03C0
3CE3C0
3C73C0
1C3B80
1E1F80
0FFF00
03FF00
000380
0001C0
000000
000000
000000
000000
000000
000000
000000
000000
ENDCHAR

STARTCHAR char_0x0052
ENCODING 82
SWIDTH 1870 0
DWIDTH 20 0
BBX 20 40 0 -10
BITMAP
000000
000000
000000
000000
000000
000000
000000
000000
3FFE00
3FFF00
3C0780
3C03C0
3C03C0
3C03C0
3C03C0
3C03C0
3C03C0
3C03C0
3C03C0
3C0780
3FFF00
3FFE00
3C1E00
3C1E00
3C0F00
3C0F00
3C0780
3C0780
3C03C0
3C03C0
000000
000000
000000
000000
000000
000000
000000
000000
000000
000000
ENDCHAR

STARTCHAR char_0x0053
ENCODING 83
SWIDTH 1870 0
DWIDTH 20 0
BBX 20 40 0 -10
BITMAP
000000
000000
000000
000000
000000
000000
000000
000000
0FFF00
1FFF80
3E03C0
3C03C0
3C03C0
3C0180
3C0000
3C0000
3C0000
3E0000
1FFF00
0FFF80
0007C0
0003C0
0003C0
0003C0
1803C0
3C03C0
3C03C0
3E03C0
1FFF80
0FFF00
000000
000000
000000
000000
000000
000000
000000
000000
000000
000000
ENDCHAR

STARTCHAR char_0x0054
ENCODING 84
SWIDTH 1870 0
DWIDTH 20 0
BBX 20 40 0 -10
BITMAP
000000
000000
000000
000000
000000
000000
000000
000000
3FFFC0
3FFFC0
00F000
00F000
00F000
00F000
00F000
00F000
00F000
00F000
00F000
00F000
00F000
00F000
00F000
00F000
00F000
00F000
00F000
00F000
00F000
00F000
000000
000000
000000
000000
000000
000000
000000
000000
000000
000000
ENDCHAR

STARTCHAR char_0x0055
ENCODING 85
SWIDTH 1870 0
DWIDTH 20 0
BBX 20 40 0 -10
BITMAP
000000
000000
000000
000000
000000
000000
000000
000000
3C03C0
3C03C0
3C03C0
3C03C0
3C03C0
3C03C0
3C03C0
3C03C0
3C03C0
3C03C0
3C03C0
3C03C0
3C03C0
3C03C0
3C03C0
3C03C0
3C03C0
3C03C0
3C03C0
3E07C0
1FFF80
0FFF00
000000
000000
000000
000000
000000
000000
000000
000000
000000
000000
ENDCHAR

STARTCHAR char_0x0056
ENCODING 86
SWIDTH 1870 0
DWIDTH 20 0
BBX 20 40 0 -10
BITMAP
000000
000000
000000
000000
000000
000000
000000
000000
3C03C0
3C03C0
3C03C0
3C03C0
3C03C0
3C03C0
3C03C0
3C03C0
3C03C0
3C03C0
3C03C0
3C03C0
3C03C0
3C03C0
3C03C0
1E0780
0F0F00
079E00
03FC00
01F800
00F000
006000
000000
000000
000000
000000
000000
000000
000000
000000
000000
000000
ENDCHAR

STARTCHAR char_0x0057
ENCODING 87
SWIDTH 1870 0
DWIDTH 20 0
BBX 20 40 0 -10
BITMAP
000000
000000
000000
000000
000000
000000
000000
000000
3C03C0
3C03C0
3C03C0
3C03C0
3C03C0
3C03C0
3C03C0
3C03C0
3C03C0
3C03C0
3C63C0
3C63C0
3C63C0
3C63C0
3C63C0
3C63C0
3C63C0
1CF380
1FFF80
0F9F00
079E00
030C00
000000
000000
000000
000000
000000
000000
000000
000000
000000
000000
ENDCHAR

STARTCHAR char_0x0058
ENCODING 88
SWIDTH 1870 0
DWIDTH 20 0
BBX 20 40 0 -10
BITMAP
000000
000000
000000
000000
000000
000000
000000
000000
3E07C0
3E07C0
1F0F80
0F0F00
079E00
079E00
03FC00
03FC00
01F800
01F800
00F000
00F000
01F800
01F800
03FC00
03FC00
079E00
079E00
0F0F00
1F0F80
3E07C0
3E07C0
000000
000000
000000
000000
000000
000000
000000
000000
000000
000000
ENDCHAR

STARTCHAR char_0x0059
ENCODING 89
SWIDTH 1870 0
DWIDTH 20 0
BBX 20 40 0 -10
BITMAP
000000
000000
000000
000000
000000
000000
000000
000000
3C03C0
3C03C0
3C03C0
3C03C0
3C03C0
3C03C0
3C03C0
3C03C0
3C03C0
1E0780
0F0F00
079E00
03FC00
01F800
00F000
00F000
00F000
00F000
00F000
00F000
00F000
00F000
000000
000000
000000
000000
000000
000000
000000
000000
000000
000000
ENDCHAR

STARTCHAR char_0x005A
ENCODING 90
SWIDTH 1870 0
DWIDTH 20 0
BBX 20 40 0 -10
BITMAP
000000
000000
000000
000000
000000
000000
000000
000000
3FFFC0
3FFFC0
0003C0
0003C0
0003C0
0007C0
000F80
001F00
003E00
007C00
00F800
01F000
03E000
07C000
0F8000
1F0000
3E0000
3C0000
3C0000
3C0000
3FFFC0
3FFFC0
000000
000000
000000
000000
000000
000000
000000
000000
000000
000000
ENDCHAR

STARTCHAR char_0x005B
ENCODING 91
SWIDTH 1870 0
DWIDTH 20 0
BBX 20 40 0 -10
BITMAP
000000
000000
000000
000000
000000
000000
00FF00
00FF00
00F000
00F000
00F000
00F000
00F000
00F000
00F000
00F000
00F000
00F000
00F000
00F000
00F000
00F000
00F000
00F000
00F000
00F000
00F000
00F000
00F000
00F000
00FF00
00FF00
000000
000000
000000
000000
000000
000000
000000
000000
ENDCHAR

STARTCHAR char_0x005C
ENCODING 92
SWIDTH 1870 0
DWIDTH 20 0
BBX 20 40 0 -10
BITMAP
000000
000000
000000
000000
000000
000000
1E0000
1E0000
0F0000
0F0000
078000
078000
03C000
03C000
01E000
01E000
00F000
00F000
007800
007800
003C00
003C00
001E00
001E00
000F00
000F00
000780
000780
0003C0
0003C0
000000
000000
000000
000000
000000
000000
000000
000000
000000
000000
ENDCHAR

STARTCHAR char_0x005D
ENCODING 93
SWIDTH 1870 0
DWIDTH 20 0
BBX 20 40 0 -10
BITMAP
000000
000000
000000
000000
000000
000000
0FF000
0FF000
00F000
00F000
00F000
00F000
00F000
00F000
00F000
00F000
00F000
00F000
00F000
00F000
00F000
00F000
00F000
00F000
00F000
00F000
00F000
00F000
00F000
00F000
0FF000
0FF000
000000
000000
000000
000000
000000
000000
000000
000000
ENDCHAR

STARTCHAR char_0x005E
ENCODING 94
SWIDTH 1870 0
DWIDTH 20 0
BBX 20 40 0 -10
BITMAP
000000
000000
006000
00F000
01F800
03FC00
079E00
0F0F00
1E0780
3C03C0
000000
000000
000000
000000
000000
000000
000000
000000
000000
000000
000000
000000
000000
000000
000000
000000
000000
000000
000000
000000
000000
000000
000000
000000
000000
000000
000000
000000
000000
000000
ENDCHAR

STARTCHAR char_0x005F
ENCODING 95
SWIDTH 1870 0
DWIDTH 20 0
BBX 20 40 0 -10
BITMAP
000000
000000
000000
000000
000000
000000
000000
000000
000000
000000
000000
000000
000000
000000
000000
000000
000000
000000
000000
000000
000000
000000
000000
000000
000000
000000
000000
000000
3FFFC0
3FFFC0
000000
000000
000000
000000
000000
000000
000000
000000
000000
000000
ENDCHAR

STARTCHAR char_0x0060
ENCODING 96
SWIDTH 1870 0
DWIDTH 20 0
BBX 20 40 0 -10
BITMAP
000000
000000
0E0000
0F0000
078000
03C000
01E000
00E000
000000
000000
000000
000000
000000
000000
000000
000000
000000
000000
000000
000000
000000
000000
000000
000000
000000
000000
000000
000000
000000
000000
000000
000000
000000
000000
000000
000000
000000
000000
000000
000000
ENDCHAR

STARTCHAR char_0x0061
ENCODING 97
SWIDTH 1870 0
DWIDTH 20 0
BBX 20 40 0 -10
BITMAP
000000
000000
000000
000000
000000
000000
000000
000000
000000
000000
000000
000000
000000
000000
0FFE00
1FFF00
1E0F80
1E0780
000780
000780
1FFF80
3FFF80
7C0780
780780
780780
780780
780780
7C0780
3FFFE0
1FFFE0
000000
000000
000000
000000
000000
000000
000000
000000
000000
000000
ENDCHAR

STARTCHAR char_0x0062
ENCODING 98
SWIDTH 1870 0
DWIDTH 20 0
BBX 20 40 0 -10
BITMAP
000000
000000
000000
000000
000000
000000
000000
000000
3C0000
3C0000
3C0000
3C0000
3C0000
3C0000
3CFE00
3DFF80
3F0780
3E03C0
3C03C0
3C03C0
3C03C0
3C03C0
3C03C0
3C03C0
3C03C0
3C03C0
3C03C0
3C0780
3FFF80
3FFF00
000000
000000
000000
000000
000000
000000
000000
000000
000000
000000
ENDCHAR

STARTCHAR char_0x0063
ENCODING 99
SWIDTH 1870 0
DWIDTH 20 0
BBX 20 40 0 -10
BITMAP
000000
000000
000000
000000
000000
000000
000000
000000
000000
000000
000000
000000
000000
000000
07FF00
0FFF80
1F07C0
1E03C0
3C0000
3C0000
3C0000
3C0000
3C0000
3C0000
3C0000
3C0000
1E03C0
1F07C0
0FFF80
07FF00
000000
000000
000000
000000
000000
000000
000000
000000
000000
000000
ENDCHAR

STARTCHAR char_0x0064
ENCODING 100
SWIDTH 1870 0
DWIDTH 20 0
BBX 20 40 0 -10
BITMAP
000000
000000
000000
000000
000000
000000
000000
000000
0003C0
0003C0
0003C0
0003C0
0003C0
0003C0
07FBC0
0FFFC0
1E07C0
1C03C0
3C03C0
3C03C0
3C03C0
3C03C0
3C03C0
3C03C0
3C03C0
3C03C0
1C03C0
1E03C0
0FFFC0
07FFC0
000000
000000
000000
000000
000000
000000
000000
000000
000000
000000
ENDCHAR

STARTCHAR char_0x0065
ENCODING 101
SWIDTH 1870 0
DWIDTH 20 0
BBX 20 40 0 -10
BITMAP
000000
000000
000000
000000
000000
000000
000000
000000
000000
000000
000000
000000
000000
000000
03FC00
07FE00
1F0700
1E0380
3C0380
3C03C0
3FFFC0
3FFFC0
3C0000
3C0000
3C0000
3C0000
1C01C0
1E03C0
0FFF80
07FF00
000000
000000
000000
000000
000000
000000
000000
000000
000000
000000
ENDCHAR

STARTCHAR char_0x0066
ENCODING 102
SWIDTH 1870 0
DWIDTH 20 0
BBX 20 40 0 -10
BITMAP
000000
000000
000000
000000
000000
000000
000000
000000
00FF00
01FF80
03C3C0
03C1C0
03C000
03C000
0FFC00
0FFC00
03C000
03C000
03C000
03C000
03C000
03C000
03C000
03C000
03C000
03C000
03C000
03C000
03C000
03C000
000000
000000
000000
000000
000000
000000
000000
000000
000000
000000
ENDCHAR

STARTCHAR char_0x0067
ENCODING 103
SWIDTH 1870 0
DWIDTH 20 0
BBX 20 40 0 -10
BITMAP
000000
000000
000000
000000
000000
000000
000000
000000
000000
000000
000000
000000
000000
000000
07FBC0
0FFFC0
1E07C0
1C03C0
3C03C0
3C03C0
3C03C0
3C03C0
3C03C0
3C03C0
3C03C0
3C03C0
1C03C0
1E07C0
0FFFC0
07FBC0
0003C0
0003C0
1803C0
3C03C0
3C03C0
3E0780
1FFF00
0FFE00
000000
000000
ENDCHAR

STARTCHAR char_0x0068
ENCODING 104
SWIDTH 1870 0
DWIDTH 20 0
BBX 20 40 0 -10
BITMAP
000000
000000
000000
000000
000000
000000
000000
000000
3C0000
3C0000
3C0000
3C0000
3C0000
3C0000
3DFF00
3FFF80
3E03C0
3C03C0
3C03C0
3C03C0
3C03C0
3C03C0
3C03C0
3C03C0
3C03C0
3C03C0
3C03C0
3C03C0
3C03C0
3C03C0
000000
000000
000000
000000
000000
000000
000000
000000
000000
000000
ENDCHAR

STARTCHAR char_0x0069
ENCODING 105
SWIDTH 1870 0
DWIDTH 20 0
BBX 20 40 0 -10
BITMAP
000000
000000
000000
000000
000000
000000
000000
000000
006000
00F000
00F000
006000
000000
000000
0FF000
0FF000
00F000
00F000
00F000
00F000
00F000
00F000
00F000
00F000
00F000
00F000
00F000
00F000
3FFFC0
3FFFC0
000000
000000
000000
000000
000000
000000
000000
000000
000000
000000
ENDCHAR

STARTCHAR char_0x006A
ENCODING 106
SWIDTH 1870 0
DWIDTH 20 0
BBX 20 40 0 -10
BITMAP
000000
000000
000000
000000
000000
000000
000000
000000
000600
000F00
000F00
000600
000000
000000
00FF00
00FF00
000F00
000F00
000F00
000F00
000F00
000F00
000F00
000F00
000F00
000F00
000F00
000F00
000F00
000F00
000F00
000F00
060F00
0F0F00
0F0F00
079F00
03FE00
01FC00
000000
000000
ENDCHAR

STARTCHAR char_0x006B
ENCODING 107
SWIDTH 1870 0
DWIDTH 20 0
BBX 20 40 0 -10
BITMAP
000000
000000
000000
000000
000000
000000
000000
000000
3C0000
3C0000
3C0000
3C0000
3C0000
3C0000
3C03C0
3C0780
3C0F00
3C1E00
3C3C00
3C7800
3CF000
3DE000
3FE000
3FF000
3CF800
3C7C00
3C3E00
3C1F00
3C0F80
3C07C0
000000
000000
000000
000000
000000
000000
000000
000000
000000
000000
ENDCHAR

STARTCHAR char_0x006C
ENCODING 108
SWIDTH 1870 0
DWIDTH 20 0
BBX 20 40 0 -10
BITMAP
000000
000000
000000
000000
000000
000000
000000
000000
0FF000
0FF000
00F000
00F000
00F000
00F000
00F000
00F000
00F000
00F000
00F000
00F000
00F000
00F000
00F000
00F000
00F000
00F000
00F000
00F000
3FFFC0
3FFFC0
000000
000000
000000
000000
000000
000000
000000
000000
000000
000000
ENDCHAR

STARTCHAR char_0x006D
ENCODING 109
SWIDTH 1870 0
DWIDTH 20 0
BBX 20 40 0 -10
BITMAP
000000
000000
000000
000000
000000
000000
000000
000000
000000
000000
000000
000000
000000
000000
3D8700
3FDF80
3FFFC0
3E67C0
3C63C0
3C63C0
3C63C0
3C63C0
3C03C0
3C03C0
3C03C0
3C03C0
3C03C0
3C03C0
3C03C0
3C03C0
000000
000000
000000
000000
000000
000000
000000
000000
000000
000000
ENDCHAR

STARTCHAR char_0x006E
ENCODING 110
SWIDTH 1870 0
DWIDTH 20 0
BBX 20 40 0 -10
BITMAP
000000
000000
000000
000000
000000
000000
000000
000000
000000
000000
000000
000000
000000
000000
3DFF00
3FFF80
3E07C0
3C03C0
3C03C0
3C03C0
3C03C0
3C03C0
3C03C0
3C03C0
3C03C0
3C03C0
3C03C0
3C03C0
3C03C0
3C03C0
000000
000000
000000
000000
000000
000000
000000
000000
000000
000000
ENDCHAR

STARTCHAR char_0x006F
ENCODING 111
SWIDTH 1870 0
DWIDTH 20 0
BBX 20 40 0 -10
BITMAP
000000
000000
000000
000000
000000
000000
000000
000000
000000
000000
000000
000000
000000
000000
07FE00
0FFF00
1E0780
1C0380
3C03C0
3C03C0
3C03C0
3C03C0
3C03C0
3C03C0
3C03C0
3C03C0
1C0380
1E0780
0FFF00
07FE00
000000
000000
000000
000000
000000
000000
000000
000000
000000
000000
ENDCHAR

STARTCHAR char_0x0070
ENCODING 112
SWIDTH 1870 0
DWIDTH 20 0
BBX 20 40 0 -10
BITMAP
000000
000000
000000
000000
000000
000000
000000
000000
000000
000000
000000
000000
000000
000000
3DFE00
3FFF00
3E0780
3C0380
3C03C0
3C03C0
3C03C0
3C03C0
3C03C0
3C03C0
3C03C0
3C03C0
3C0380
3C0780
3FFF00
3FFE00
3C0000
3C0000
3C0000
3C0000
3C0000
3C0000
3C0000
3C0000
000000
000000
ENDCHAR

STARTCHAR char_0x0071
ENCODING 113
SWIDTH 1870 0
DWIDTH 20 0
BBX 20 40 0 -10
BITMAP
000000
000000
000000
000000
000000
000000
000000
000000
000000
000000
000000
000000
000000
000000
07FFC0
0FFFC0
1E03C0
1C03C0
3C03C0
3C03C0
3C03C0
3C03C0
3C03C0
3C03C0
3C03C0
3C03C0
1C03C0
1E07C0
0FFFC0
07FBC0
0003C0
0003C0
0003C0
0003C0
0003C0
0003C0
0003C0
0003C0
000000
000000
ENDCHAR

STARTCHAR char_0x0072
ENCODING 114
SWIDTH 1870 0
DWIDTH 20 0
BBX 20 40 0 -10
BITMAP
000000
000000
000000
000000
000000
000000
000000
000000
000000
000000
000000
000000
000000
000000
3DFF00
3FFF80
3E03C0
3C03C0
3C03C0
3C0180
3C0000
3C0000
3C0000
3C0000
3C0000
3C0000
3C0000
3C0000
3C0000
3C0000
000000
000000
000000
000000
000000
000000
000000
000000
000000
000000
ENDCHAR

STARTCHAR char_0x0073
ENCODING 115
SWIDTH 1870 0
DWIDTH 20 0
BBX 20 40 0 -10
BITMAP
000000
000000
000000
000000
000000
000000
000000
000000
000000
000000
000000
000000
000000
000000
0FFF80
1FFFC0
3E03C0
3C0180
3C0000
3E0000
1FFF00
0FFF80
0007C0
0003C0
1803C0
3C03C0
3C03C0
3E07C0
1FFF80
0FFF00
000000
000000
000000
000000
000000
000000
000000
000000
000000
000000
ENDCHAR

STARTCHAR char_0x0074
ENCODING 116
SWIDTH 1870 0
DWIDTH 20 0
BBX 20 40 0 -10
BITMAP
000000
000000
000000
000000
000000
000000
000000
000000
03C000
03C000
03C000
03C000
03C000
03C000
1FFF00
3FFE00
03C000
03C000
03C000
03C000
03C000
03C000
03C000
03C000
03C180
03C3C0
03C3C0
03E380
01FF00
00FE00
000000
000000
000000
000000
000000
000000
000000
000000
000000
000000
ENDCHAR

STARTCHAR char_0x0075
ENCODING 117
SWIDTH 1870 0
DWIDTH 20 0
BBX 20 40 0 -10
BITMAP
000000
000000
000000
000000
000000
000000
000000
000000
000000
000000
000000
000000
000000
000000
3C03C0
3C03C0
3C03C0
3C03C0
3C03C0
3C03C0
3C03C0
3C03C0
3C03C0
3C03C0
3C03C0
3C03C0
3C03C0
3C07C0
1FFFC0
0FFBC0
000000
000000
000000
000000
000000
000000
000000
000000
000000
000000
ENDCHAR

STARTCHAR char_0x0076
ENCODING 118
SWIDTH 1870 0
DWIDTH 20 0
BBX 20 40 0 -10
BITMAP
000000
000000
000000
000000
000000
000000
000000
000000
000000
000000
000000
000000
000000
000000
3C03C0
3C03C0
3C03C0
3C03C0
3C03C0
3C03C0
3C03C0
3C03C0
3C03C0
3C03C0
1E0780
0F0F00
079E00
03FC00
01F800
00F000
000000
000000
000000
000000
000000
000000
000000
000000
000000
000000
ENDCHAR

STARTCHAR char_0x0077
ENCODING 119
SWIDTH 1870 0
DWIDTH 20 0
BBX 20 40 0 -10
BITMAP
000000
000000
000000
000000
000000
000000
000000
000000
000000
000000
000000
000000
000000
000000
7801E0
7801E0
7801E0
7801E0
7801E0
7801E0
7861E0
7861E0
7861E0
7861E0
7861E0
7861E0
7861E0
7CF3E0
3F9FC0
1F0F80
000000
000000
000000
000000
000000
000000
000000
000000
000000
000000
ENDCHAR

STARTCHAR char_0x0078
ENCODING 120
SWIDTH 1870 0
DWIDTH 20 0
BBX 20 40 0 -10
BITMAP
000000
000000
000000
000000
000000
000000
000000
000000
000000
000000
000000
000000
000000
000000
7801E0
7C03E0
3E07C0
1F0F80
0F9F00
07FE00
03FC00
01F800
01F800
03FC00
07FE00
0F9F00
1F0F80
3E07C0
7C03E0
7801E0
000000
000000
000000
000000
000000
000000
000000
000000
000000
000000
ENDCHAR

STARTCHAR char_0x0079
ENCODING 121
SWIDTH 1870 0
DWIDTH 20 0
BBX 20 40 0 -10
BITMAP
000000
000000
000000
000000
000000
000000
000000
000000
000000
000000
000000
000000
000000
000000
3C03C0
3C03C0
3C03C0
3C03C0
3C03C0
3C03C0
3C03C0
3C03C0
3C03C0
3C03C0
3C03C0
3C03C0
3C03C0
3C07C0
1FFFC0
0FFBC0
0003C0
0003C0
1803C0
3C0380
3C0380
3C0700
1FFE00
0FFC00
000000
000000
ENDCHAR

STARTCHAR char_0x007A
ENCODING 122
SWIDTH 1870 0
DWIDTH 20 0
BBX 20 40 0 -10
BITMAP
000000
000000
000000
000000
000000
000000
000000
000000
000000
000000
000000
000000
000000
000000
3FFFC0
3FFFC0
000FC0
001FC0
003F80
007F00
00FE00
01FC00
03F800
07F000
0FE000
1FC000
3F8000
3F0000
3FFFC0
3FFFC0
000000
000000
000000
000000
000000
000000
000000
000000
000000
000000
ENDCHAR

STARTCHAR char_0x007B
ENCODING 123
SWIDTH 1870 0
DWIDTH 20 0
BBX 20 40 0 -10
BITMAP
000000
000000
000000
000000
000000
000000
003C00
007800
00F000
00F000
00F000
00F000
00F000
00F000
00F000
00E000
01E000
03C000
0F8000
0F8000
03C000
01E000
00E000
00F000
00F000
00F000
00F000
00F000
00F000
00F000
007800
003C00
000000
000000
000000
000000
000000
000000
000000
000000
ENDCHAR

STARTCHAR char_0x007C
ENCODING 124
SWIDTH 1870 0
DWIDTH 20 0
BBX 20 40 0 -10
BITMAP
000000
000000
000000
000000
000000
000000
00F000
00F000
00F000
00F000
00F000
00F000
00F000
00F000
00F000
00F000
00F000
00F000
00F000
00F000
00F000
00F000
00F000
00F000
00F000
00F000
00F000
00F000
00F000
00F000
00F000
00F000
000000
000000
000000
000000
000000
000000
000000
000000
ENDCHAR

STARTCHAR char_0x007D
ENCODING 125
SWIDTH 1870 0
DWIDTH 20 0
BBX 20 40 0 -10
BITMAP
000000
000000
000000
000000
000000
000000
03C000
01E000
00F000
00F000
00F000
00F000
00F000
00F000
00F000
007000
007800
003C00
001F00
001F00
003C00
007800
007000
00F000
00F000
00F000
00F000
00F000
00F000
00F000
01E000
03C000
000000
000000
000000
000000
000000
000000
000000
000000
ENDCHAR

STARTCHAR char_0x007E
ENCODING 126
SWIDTH 1870 0
DWIDTH 20 0
BBX 20 40 0 -10
BITMAP
000000
000000
07C080
0FE0C0
1CF0C0
1879C0
183F80
081F00
000000
000000
000000
000000
000000
000000
000000
000000
000000
000000
000000
000000
000000
000000
000000
000000
000000
000000
000000
000000
000000
000000
000000
000000
000000
000000
000000
000000
000000
000000
000000
000000
ENDCHAR

STARTCHAR char_0x0080
ENCODING 128
SWIDTH 1870 0
DWIDTH 20 0
BBX 20 40 0 -10
BITMAP
000000
000000
000000
000000
000000
000000
000000
000000
1FFFE0
3FFFE0
7C7800
787800
787800
787800
787800
787800
787800
787800
787F80
787F80
787800
787800
787800
787800
787800
787800
787800
7C7800
3FFFE0
1FFFE0
000000
000000
000000
000000
000000
000000
000000
000000
000000
000000
ENDCHAR

STARTCHAR char_0x0081
ENCODING 129
SWIDTH 1870 0
DWIDTH 20 0
BBX 20 40 0 -10
BITMAP
000000
000000
000000
000000
000000
000000
000000
000000
000000
000000
000000
000000
000000
000000
07FF80
0FFFC0
1C79E0
3878E0
3878E0
7878E0
787FE0
787FE0
787800
787800
787800
387800
387860
1C78E0
0FFFC0
07FF80
000000
000000
000000
000000
000000
000000
000000
000000
000000
000000
ENDCHAR

STARTCHAR char_0x0082
ENCODING 130
SWIDTH 1870 0
DWIDTH 20 0
BBX 20 40 0 -10
BITMAP
000000
000000
060600
0F0F00
0F0F00
060600
000000
000000
3C03C0
3C03C0
3C03C0
3C03C0
3C03C0
3C03C0
3C03C0
3C03C0
3C03C0
1E0780
0F0F00
079E00
03FC00
01F800
00F000
00F000
00F000
00F000
00F000
00F000
00F000
00F000
000000
000000
000000
000000
000000
000000
000000
000000
000000
000000
ENDCHAR

STARTCHAR char_0x00A1
ENCODING 161
SWIDTH 1870 0
DWIDTH 20 0
BBX 20 40 0 -10
BITMAP
000000
000000
000000
000000
000000
000000
000000
000000
006000
00F000
00F000
006000
000000
000000
006000
00F000
00F000
00F000
00F000
00F000
00F000
00F000
00F000
00F000
00F000
00F000
00F000
00F000
00F000
00F000
00F000
006000
000000
000000
000000
000000
000000
000000
000000
000000
ENDCHAR

STARTCHAR char_0x00A2
ENCODING 162
SWIDTH 1870 0
DWIDTH 20 0
BBX 20 40 0 -10
BITMAP
000000
000000
000000
000000
000000
000000
000000
000000
003000
003000
003000
003000
03FE00
07FF00
0FB780
0F3380
0F3000
0F3000
0F3000
0F3000
0F3000
0F3000
0F3380
0FB780
07FF00
03FE00
003000
003000
003000
003000
000000
000000
000000
000000
000000
000000
000000
000000
000000
000000
ENDCHAR

STARTCHAR char_0x00A3
ENCODING 163
SWIDTH 1870 0
DWIDTH 20 0
BBX 20 40 0 -10
BITMAP
000000
000000
000000
000000
000000
000000
000000
000000
00FF00
01FF80
03E3C0
03C3C0
03C3C0
03C180
03C000
03C000
03C000
03C000
07FC00
0FF800
03C000
03C000
03C000
03C000
03C000
03E0C0
07F1C0
0F7FC0
1E3FC0
3C1F80
000000
000000
000000
000000
000000
000000
000000
000000
000000
000000
ENDCHAR

STARTCHAR char_0x00A4
ENCODING 164
SWIDTH 1870 0
DWIDTH 20 0
BBX 20 40 0 -10
BITMAP
000000
000000
000000
000000
000000
000000
000000
000000
000000
000000
000000
000000
180180
0C0300
07FE00
07FE00
0F9F00
0F0F00
0F0F00
0F0F00
0F0F00
0F0F00
0F0F00
0F9F00
07FE00
07FE00
0C0300
180180
000000
000000
000000
000000
000000
000000
000000
000000
000000
000000
000000
000000
ENDCHAR

STARTCHAR char_0x00A5
ENCODING 165
SWIDTH 1870 0
DWIDTH 20 0
BBX 20 40 0 -10
BITMAP
000000
000000
000000
000000
000000
000000
000000
000000
3C03C0
3C03C0
1E0780
1E0780
0F0F00
0F0F00
079E00
079E00
03FC00
03FC00
01F800
01F800
0FFF00
0FFF00
00F000
00F000
0FFF00
0FFF00
00F000
00F000
00F000
00F000
000000
000000
000000
000000
000000
000000
000000
000000
000000
000000
ENDCHAR

STARTCHAR char_0x00A6
ENCODING 166
SWIDTH 1870 0
DWIDTH 20 0
BBX 20 40 0 -10
BITMAP
000000
000000
000000
000000
000000
000000
00F000
00F000
00F000
00F000
00F000
00F000
00F000
00F000
00F000
00F000
000000
000000
000000
000000
00F000
00F000
00F000
00F000
00F000
00F000
00F000
00F000
00F000
00F000
000000
000000
000000
000000
000000
000000
000000
000000
000000
000000
ENDCHAR

STARTCHAR char_0x00A7
ENCODING 167
SWIDTH 1870 0
DWIDTH 20 0
BBX 20 40 0 -10
BITMAP
000000
000000
000000
000000
000000
000000
07F800
0FFC00
1E1E00
1F0F00
1F8700
0FC300
07E000
03F000
0FF800
1CFC00
3C7E00
3E3F00
3F1F80
1F8FC0
0FC7C0
07E3C0
03F1C0
01F980
00FF00
007E00
0C3F00
0E1F80
0F0F80
0F8780
07FF00
03FE00
000000
000000
000000
000000
000000
000000
000000
000000
ENDCHAR

STARTCHAR char_0x00A8
ENCODING 168
SWIDTH 1870 0
DWIDTH 20 0
BBX 20 40 0 -10
BITMAP
000000
000000
060600
0F0F00
0F0F00
060600
000000
000000
000000
000000
000000
000000
000000
000000
000000
000000
000000
000000
000000
000000
000000
000000
000000
000000
000000
000000
000000
000000
000000
000000
000000
000000
000000
000000
000000
000000
000000
000000
000000
000000
ENDCHAR

STARTCHAR char_0x00A9
ENCODING 169
SWIDTH 1870 0
DWIDTH 20 0
BBX 20 40 0 -10
BITMAP
000000
000000
000000
000000
000000
000000
000000
000000
0FFF00
1FFF80
3801C0
3000C0
31F8C0
33FCC0
33CCC0
33CCC0
33C0C0
33C0C0
33C0C0
33C0C0
33CCC0
33CCC0
33FCC0
31F8C0
3000C0
3801C0
1FFF80
0FFF00
000000
000000
000000
000000
000000
000000
000000
000000
000000
000000
000000
000000
ENDCHAR

STARTCHAR char_0x00AA
ENCODING 170
SWIDTH 1870 0
DWIDTH 20 0
BBX 20 40 0 -10
BITMAP
000000
000000
000000
000000
000000
000000
03F800
03FC00
003C00
003C00
07FC00
0FFC00
0C3C00
0C3C00
0C3C00
0C3C00
0FFC00
07FC00
000000
000000
0FFC00
0FFC00
000000
000000
000000
000000
000000
000000
000000
000000
000000
000000
000000
000000
000000
000000
000000
000000
000000
000000
ENDCHAR

STARTCHAR char_0x00AB
ENCODING 171
SWIDTH 1870 0
DWIDTH 20 0
BBX 20 40 0 -10
BITMAP
000000
000000
000000
000000
000000
000000
000000
000000
000000
000000
000000
000000
01E1E0
03C3C0
078780
0F0F00
1E1E00
3C3C00
787800
787800
3C3C00
1E1E00
0F0F00
078780
03C3C0
01E1E0
000000
000000
000000
000000
000000
000000
000000
000000
000000
000000
000000
000000
000000
000000
ENDCHAR

STARTCHAR char_0x00AC
ENCODING 172
SWIDTH 1870 0
DWIDTH 20 0
BBX 20 40 0 -10
BITMAP
000000
000000
000000
000000
000000
000000
0FFFC0
0FFFC0
0000C0
0000C0
0000C0
0000C0
000000
000000
000000
000000
000000
000000
000000
000000
000000
000000
000000
000000
000000
000000
000000
000000
000000
000000
000000
000000
000000
000000
000000
000000
000000
000000
000000
000000
ENDCHAR

STARTCHAR char_0x00AD
ENCODING 173
SWIDTH 1870 0
DWIDTH 20 0
BBX 20 40 0 -10
BITMAP
000000
000000
000000
000000
000000
000000
000000
000000
000000
000000
000000
000000
000000
000000
000000
000000
000000
000000
03FC00
03FC00
000000
000000
000000
000000
000000
000000
000000
000000
000000
000000
000000
000000
000000
000000
000000
000000
000000
000000
000000
000000
ENDCHAR

STARTCHAR char_0x00AE
ENCODING 174
SWIDTH 1870 0
DWIDTH 20 0
BBX 20 40 0 -10
BITMAP
000000
000000
000000
000000
000000
000000
000000
000000
1FFF80
3FFFC0
7000E0
600060
67FC60
67FE60
679E60
679E60
679E60
679E60
67FC60
67FE60
679E60
679E60
679E60
679E60
600060
7000E0
3FFFC0
1FFF80
000000
000000
000000
000000
000000
000000
000000
000000
000000
000000
000000
000000
ENDCHAR

STARTCHAR char_0x00AF
ENCODING 175
SWIDTH 1870 0
DWIDTH 20 0
BBX 20 40 0 -10
BITMAP
000000
000000
000000
000000
000000
000000
0FFF00
0FFF00
000000
000000
000000
000000
000000
000000
000000
000000
000000
000000
000000
000000
000000
000000
000000
000000
000000
000000
000000
000000
000000
000000
000000
000000
000000
000000
000000
000000
000000
000000
000000
000000
ENDCHAR

STARTCHAR char_0x00B0
ENCODING 176
SWIDTH 1870 0
DWIDTH 20 0
BBX 20 40 0 -10
BITMAP
000000
000000
000000
000000
03F000
07F800
0F9C00
0F0C00
0F0C00
0F0C00
0F0C00
0F9C00
07F800
03F000
000000
000000
000000
000000
000000
000000
000000
000000
000000
000000
000000
000000
000000
000000
000000
000000
000000
000000
000000
000000
000000
000000
000000
000000
000000
000000
ENDCHAR

STARTCHAR char_0x00B1
ENCODING 177
SWIDTH 1870 0
DWIDTH 20 0
BBX 20 40 0 -10
BITMAP
000000
000000
000000
000000
000000
000000
000000
000000
00F000
00F000
00F000
00F000
00F000
00F000
00F000
00F000
3FFFC0
3FFFC0
00F000
00F000
00F000
00F000
00F000
00F000
00F000
00F000
000000
000000
3FFFC0
3FFFC0
000000
000000
000000
000000
000000
000000
000000
000000
000000
000000
ENDCHAR

STARTCHAR char_0x00B2
ENCODING 178
SWIDTH 1870 0
DWIDTH 20 0
BBX 20 40 0 -10
BITMAP
000000
000000
000000
000000
000000
000000
07F800
0FFC00
0E1C00
0C1C00
003C00
007C00
00F800
01F000
03E000
07C000
0F8000
0F0000
0FFC00
0FFC00
000000
000000
000000
000000
000000
000000
000000
000000
000000
000000
000000
000000
000000
000000
000000
000000
000000
000000
000000
000000
ENDCHAR

STARTCHAR char_0x00B3
ENCODING 179
SWIDTH 1870 0
DWIDTH 20 0
BBX 20 40 0 -10
BITMAP
000000
000000
000000
000000
000000
000000
03F000
07F800
0F7C00
0F3C00
003C00
003800
00F000
00F000
003800
003C00
0F3C00
0F7C00
07F800
03F000
000000
000000
000000
000000
000000
000000
000000
000000
000000
000000
000000
000000
000000
000000
000000
000000
000000
000000
000000
000000
ENDCHAR

STARTCHAR char_0x00B4
ENCODING 180
SWIDTH 1870 0
DWIDTH 20 0
BBX 20 40 0 -10
BITMAP
000000
000000
000F00
001E00
003C00
007800
00F000
01E000
000000
000000
000000
000000
000000
000000
000000
000000
000000
000000
000000
000000
000000
000000
000000
000000
000000
000000
000000
000000
000000
000000
000000
000000
000000
000000
000000
000000
000000
000000
000000
000000
ENDCHAR

STARTCHAR char_0x00B5
ENCODING 181
SWIDTH 1870 0
DWIDTH 20 0
BBX 20 40 0 -10
BITMAP
000000
000000
000000
000000
000000
000000
000000
000000
000000
000000
000000
000000
000000
000000
1E0780
1E0780
1E0780
1E0780
1E0780
1E0780
1E0780
1E0780
1E0780
1E0780
1E0780
1E0780
1E0780
1E0780
1FFFE0
1FFFE0
3C0000
780000
000000
000000
000000
000000
000000
000000
000000
000000
ENDCHAR

STARTCHAR char_0x00B6
ENCODING 182
SWIDTH 1870 0
DWIDTH 20 0
BBX 20 40 0 -10
BITMAP
000000
000000
000000
000000
000000
000000
01FFC0
03FFC0
078780
0F8780
1F8780
1F8780
1F8780
1F8780
1F8780
1F8780
1F8780
1F8780
0F8780
078780
038780
018780
018780
018780
018780
018780
018780
018780
018780
018780
018780
018780
000000
000000
000000
000000
000000
000000
000000
000000
ENDCHAR

STARTCHAR char_0x00B7
ENCODING 183
SWIDTH 1870 0
DWIDTH 20 0
BBX 20 40 0 -10
BITMAP
000000
000000
000000
000000
000000
000000
000000
000000
000000
000000
000000
000000
000000
000000
000000
000000
006000
00F000
00F000
006000
000000
000000
000000
000000
000000
000000
000000
000000
000000
000000
000000
000000
000000
000000
000000
000000
000000
000000
000000
000000
ENDCHAR

STARTCHAR char_0x00B8
ENCODING 184
SWIDTH 1870 0
DWIDTH 20 0
BBX 20 40 0 -10
BITMAP
000000
000000
000000
000000
000000
000000
000000
000000
000000
000000
000000
000000
000000
000000
000000
000000
000000
000000
000000
000000
000000
000000
000000
000000
000F00
000F00
000F00
000F00
000F00
000F00
00FF00
00FE00
000000
000000
000000
000000
000000
000000
000000
000000
ENDCHAR

STARTCHAR char_0x00B9
ENCODING 185
SWIDTH 1870 0
DWIDTH 20 0
BBX 20 40 0 -10
BITMAP
000000
000000
000000
000000
000000
000000
00F000
01F000
03F000
03F000
00F000
00F000
00F000
00F000
00F000
00F000
00F000
00F000
03FC00
03FC00
000000
000000
000000
000000
000000
000000
000000
000000
000000
000000
000000
000000
000000
000000
000000
000000
000000
000000
000000
000000
ENDCHAR

STARTCHAR char_0x00BA
ENCODING 186
SWIDTH 1870 0
DWIDTH 20 0
BBX 20 40 0 -10
BITMAP
000000
000000
000000
000000
000000
000000
07F800
0FFC00
0F3C00
0F3C00
0F3C00
0F3C00
0F3C00
0F3C00
0F3C00
0F3C00
0FFC00
07F800
000000
000000
0FFC00
0FFC00
000000
000000
000000
000000
000000
000000
000000
000000
000000
000000
000000
000000
000000
000000
000000
000000
000000
000000
ENDCHAR

STARTCHAR char_0x00BB
ENCODING 187
SWIDTH 1870 0
DWIDTH 20 0
BBX 20 40 0 -10
BITMAP
000000
000000
000000
000000
000000
000000
000000
000000
000000
000000
000000
000000
787800
3C3C00
1E1E00
0F0F00
078780
03C3C0
01E1E0
01E1E0
03C3C0
078780
0F0F00
1E1E00
3C3C00
787800
000000
000000
000000
000000
000000
000000
000000
000000
000000
000000
000000
000000
000000
000000
ENDCHAR

STARTCHAR char_0x00BC
ENCODING 188
SWIDTH 1870 0
DWIDTH 20 0
BBX 20 40 0 -10
BITMAP
000000
000000
000000
000000
1E0000
3E0000
7E0000
7E0000
1E0000
1E0000
1E0180
1E0380
1E0700
1E0E00
1E1C00
1E3800
7FF780
7FEF80
01DF80
03BF80
077F80
0EF780
1DE780
3BC780
77FFE0
67FFE0
000780
000780
000780
000780
000000
000000
000000
000000
000000
000000
000000
000000
000000
000000
ENDCHAR

STARTCHAR char_0x00BD
ENCODING 189
SWIDTH 1870 0
DWIDTH 20 0
BBX 20 40 0 -10
BITMAP
000000
000000
000000
000000
1E0000
3E0000
7E0000
7E0000
1E0000
1E0000
1E0180
1E0380
1E0700
1E0E00
1E1C00
1E3800
7FFF80
7FFFC0
01F1E0
03E1E0
0701E0
0E03E0
1C07C0
380F80
701F00
603E00
007C00
007800
007FE0
007FE0
000000
000000
000000
000000
000000
000000
000000
000000
000000
000000
ENDCHAR

STARTCHAR char_0x00BE
ENCODING 190
SWIDTH 1870 0
DWIDTH 20 0
BBX 20 40 0 -10
BITMAP
000000
000000
000000
000000
3FC000
7FE000
71E000
71E000
01E000
01E000
07C0C0
07C1C0
01E380
01E700
71EE00
71FC00
7FFB80
3FF780
00EF80
01DF80
03BF80
077780
0EE780
1DC780
3BFFE0
33FFE0
000780
000780
000780
000780
000000
000000
000000
000000
000000
000000
000000
000000
000000
000000
ENDCHAR

STARTCHAR char_0x00BF
ENCODING 191
SWIDTH 1870 0
DWIDTH 20 0
BBX 20 40 0 -10
BITMAP
000000
000000
000000
000000
000000
000000
000000
000000
006000
00F000
00F000
006000
000000
000000
006000
00E000
01E000
03C000
078000
0F0000
1E0000
1C0000
3C0000
3C0600
3C0F00
3C0F00
3E0F00
1F1F00
1FFE00
07FC00
000000
000000
000000
000000
000000
000000
000000
000000
000000
000000
ENDCHAR

STARTCHAR char_0x00C0
ENCODING 192
SWIDTH 1870 0
DWIDTH 20 0
BBX 20 40 0 -10
BITMAP
000000
000000
078000
03C000
01E000
00F000
000000
000000
006000
00F000
01F800
03FC00
079E00
0F0F00
1E0780
3C03C0
3C03C0
3C03C0
3C03C0
3C03C0
3FFFC0
3FFFC0
3C03C0
3C03C0
3C03C0
3C03C0
3C03C0
3C03C0
3C03C0
3C03C0
000000
000000
000000
000000
000000
000000
000000
000000
000000
000000
ENDCHAR

STARTCHAR char_0x00C1
ENCODING 193
SWIDTH 1870 0
DWIDTH 20 0
BBX 20 40 0 -10
BITMAP
000000
000000
001E00
003C00
007800
00F000
000000
000000
006000
00F000
01F800
03FC00
079E00
0F0F00
1E0780
3C03C0
3C03C0
3C03C0
3C03C0
3C03C0
3FFFC0
3FFFC0
3C03C0
3C03C0
3C03C0
3C03C0
3C03C0
3C03C0
3C03C0
3C03C0
000000
000000
000000
000000
000000
000000
000000
000000
000000
000000
ENDCHAR

STARTCHAR char_0x00C2
ENCODING 194
SWIDTH 1870 0
DWIDTH 20 0
BBX 20 40 0 -10
BITMAP
000000
000000
00F000
01F800
03FC00
079E00
000000
000000
006000
00F000
01F800
03FC00
079E00
0F0F00
1E0780
3C03C0
3C03C0
3C03C0
3C03C0
3C03C0
3FFFC0
3FFFC0
3C03C0
3C03C0
3C03C0
3C03C0
3C03C0
3C03C0
3C03C0
3C03C0
000000
000000
000000
000000
000000
000000
000000
000000
000000
000000
ENDCHAR

STARTCHAR char_0x00C3
ENCODING 195
SWIDTH 1870 0
DWIDTH 20 0
BBX 20 40 0 -10
BITMAP
000000
000000
03E300
07F300
0CFE00
0C7C00
000000
000000
006000
00F000
01F800
03FC00
079E00
0F0F00
1E0780
3C03C0
3C03C0
3C03C0
3C03C0
3C03C0
3FFFC0
3FFFC0
3C03C0
3C03C0
3C03C0
3C03C0
3C03C0
3C03C0
3C03C0
3C03C0
000000
000000
000000
000000
000000
000000
000000
000000
000000
000000
ENDCHAR

STARTCHAR char_0x00C4
ENCODING 196
SWIDTH 1870 0
DWIDTH 20 0
BBX 20 40 0 -10
BITMAP
000000
000000
060600
0F0F00
0F0F00
060600
000000
000000
006000
00F000
01F800
03FC00
079E00
0F0F00
1E0780
3C03C0
3C03C0
3C03C0
3C03C0
3C03C0
3FFFC0
3FFFC0
3C03C0
3C03C0
3C03C0
3C03C0
3C03C0
3C03C0
3C03C0
3C03C0
000000
000000
000000
000000
000000
000000
000000
000000
000000
000000
ENDCHAR

STARTCHAR char_0x00C5
ENCODING 197
SWIDTH 1870 0
DWIDTH 20 0
BBX 20 40 0 -10
BITMAP
000000
000000
006000
00F000
00F000
006000
000000
000000
006000
00F000
01F800
03FC00
079E00
0F0F00
1E0780
3C03C0
3C03C0
3C03C0
3C03C0
3C03C0
3FFFC0
3FFFC0
3C03C0
3C03C0
3C03C0
3C03C0
3C03C0
3C03C0
3C03C0
3C03C0
000000
000000
000000
000000
000000
000000
000000
000000
000000
000000
ENDCHAR

STARTCHAR char_0x00C6
ENCODING 198
SWIDTH 1870 0
DWIDTH 20 0
BBX 20 40 0 -10
BITMAP
000000
000000
000000
000000
000000
000000
000000
000000
00FFC0
01FFC0
03BC00
073C00
0E3C00
1C3C00
3C3C00
3C3C00
3C3C00
3C3C00
3FFF00
3FFF00
3C3C00
3C3C00
3C3C00
3C3C00
3C3C00
3C3C00
3C3C00
3C3C00
3C3FC0
3C3FC0
000000
000000
000000
000000
000000
000000
000000
000000
000000
000000
ENDCHAR

STARTCHAR char_0x00C7
ENCODING 199
SWIDTH 1870 0
DWIDTH 20 0
BBX 20 40 0 -10
BITMAP
000000
000000
000000
000000
000000
000000
000000
000000
03FF00
0FFF80
1F83C0
1E03C0
3E03C0
3C0180
3C0000
3C0000
3C0000
3C0000
3C0000
3C0000
3C0000
3C0000
3C0000
3C0000
3C0180
3E03C0
1E03C0
1F83C0
0FFF80
03FF00
003E00
003E00
00F800
00F800
000000
000000
000000
000000
000000
000000
ENDCHAR

STARTCHAR char_0x00C8
ENCODING 200
SWIDTH 1870 0
DWIDTH 20 0
BBX 20 40 0 -10
BITMAP
000000
000000
078000
03C000
01E000
00F000
000000
000000
3FFFC0
3FFFC0
3C0000
3C0000
3C0000
3C0000
3C0000
3C0000
3C0000
3C0000
3FFC00
3FFC00
3C0000
3C0000
3C0000
3C0000
3C0000
3C0000
3C0000
3C0000
3FFFC0
3FFFC0
000000
000000
000000
000000
000000
000000
000000
000000
000000
000000
ENDCHAR

STARTCHAR char_0x00C9
ENCODING 201
SWIDTH 1870 0
DWIDTH 20 0
BBX 20 40 0 -10
BITMAP
000000
000000
003C00
007800
00F000
01E000
000000
000000
3FFFC0
3FFFC0
3C0000
3C0000
3C0000
3C0000
3C0000
3C0000
3C0000
3C0000
3FFC00
3FFC00
3C0000
3C0000
3C0000
3C0000
3C0000
3C0000
3C0000
3C0000
3FFFC0
3FFFC0
000000
000000
000000
000000
000000
000000
000000
000000
000000
000000
ENDCHAR

STARTCHAR char_0x00CA
ENCODING 202
SWIDTH 1870 0
DWIDTH 20 0
BBX 20 40 0 -10
BITMAP
000000
000000
00F000
01F800
03FC00
079E00
000000
000000
3FFFC0
3FFFC0
3C0000
3C0000
3C0000
3C0000
3C0000
3C0000
3C0000
3C0000
3FFC00
3FFC00
3C0000
3C0000
3C0000
3C0000
3C0000
3C0000
3C0000
3C0000
3FFFC0
3FFFC0
000000
000000
000000
000000
000000
000000
000000
000000
000000
000000
ENDCHAR

STARTCHAR char_0x00CB
ENCODING 203
SWIDTH 1870 0
DWIDTH 20 0
BBX 20 40 0 -10
BITMAP
000000
000000
060C00
0F1E00
0F1E00
060C00
000000
000000
3FFFC0
3FFFC0
3C0000
3C0000
3C0000
3C0000
3C0000
3C0000
3C0000
3C0000
3FFC00
3FFC00
3C0000
3C0000
3C0000
3C0000
3C0000
3C0000
3C0000
3C0000
3FFFC0
3FFFC0
000000
000000
000000
000000
000000
000000
000000
000000
000000
000000
ENDCHAR

STARTCHAR char_0x00CC
ENCODING 204
SWIDTH 1870 0
DWIDTH 20 0
BBX 20 40 0 -10
BITMAP
000000
000000
078000
03C000
01E000
00F000
000000
000000
3FFFC0
3FFFC0
00F000
00F000
00F000
00F000
00F000
00F000
00F000
00F000
00F000
00F000
00F000
00F000
00F000
00F000
00F000
00F000
00F000
00F000
3FFFC0
3FFFC0
000000
000000
000000
000000
000000
000000
000000
000000
000000
000000
ENDCHAR

STARTCHAR char_0x00CD
ENCODING 205
SWIDTH 1870 0
DWIDTH 20 0
BBX 20 40 0 -10
BITMAP
000000
000000
001E00
003C00
007800
00F000
000000
000000
3FFFC0
3FFFC0
00F000
00F000
00F000
00F000
00F000
00F000
00F000
00F000
00F000
00F000
00F000
00F000
00F000
00F000
00F000
00F000
00F000
00F000
3FFFC0
3FFFC0
000000
000000
000000
000000
000000
000000
000000
000000
000000
000000
ENDCHAR

STARTCHAR char_0x00CE
ENCODING 206
SWIDTH 1870 0
DWIDTH 20 0
BBX 20 40 0 -10
BITMAP
000000
000000
00F000
01F800
03FC00
079E00
000000
000000
3FFFC0
3FFFC0
00F000
00F000
00F000
00F000
00F000
00F000
00F000
00F000
00F000
00F000
00F000
00F000
00F000
00F000
00F000
00F000
00F000
00F000
3FFFC0
3FFFC0
000000
000000
000000
000000
000000
000000
000000
000000
000000
000000
ENDCHAR

STARTCHAR char_0x00CF
ENCODING 207
SWIDTH 1870 0
DWIDTH 20 0
BBX 20 40 0 -10
BITMAP
000000
000000
060600
0F0F00
0F0F00
060600
000000
000000
3FFFC0
3FFFC0
00F000
00F000
00F000
00F000
00F000
00F000
00F000
00F000
00F000
00F000
00F000
00F000
00F000
00F000
00F000
00F000
00F000
00F000
3FFFC0
3FFFC0
000000
000000
000000
000000
000000
000000
000000
000000
000000
000000
ENDCHAR

STARTCHAR char_0x00D0
ENCODING 208
SWIDTH 1870 0
DWIDTH 20 0
BBX 20 40 0 -10
BITMAP
000000
000000
000000
000000
000000
000000
000000
000000
03F800
03FC00
03C600
03C300
03C380
03C180
03C1C0
03C1C0
03C1C0
03C1C0
0FF1C0
0FF1C0
03C1C0
03C1C0
03C1C0
03C1C0
03C180
03C380
03C300
03C600
03FC00
03F800
000000
000000
000000
000000
000000
000000
000000
000000
000000
000000
ENDCHAR

STARTCHAR char_0x00D1
ENCODING 209
SWIDTH 1870 0
DWIDTH 20 0
BBX 20 40 0 -10
BITMAP
000000
000000
03E300
07F300
0CFE00
0C7C00
000000
000000
3C03C0
3C03C0
3E03C0
3E03C0
3F03C0
3F03C0
3D83C0
3D83C0
3CC3C0
3CC3C0
3C63C0
3C63C0
3C33C0
3C33C0
3C1BC0
3C1BC0
3C0FC0
3C0FC0
3C07C0
3C07C0
3C03C0
3C03C0
000000
000000
000000
000000
000000
000000
000000
000000
000000
000000
ENDCHAR

STARTCHAR char_0x00D2
ENCODING 210
SWIDTH 1870 0
DWIDTH 20 0
BBX 20 40 0 -10
BITMAP
000000
000000
078000
03C000
01E000
00F000
000000
000000
0FFF00
1FFF80
3E07C0
3C03C0
3C03C0
3C03C0
3C03C0
3C03C0
3C03C0
3C03C0
3C03C0
3C03C0
3C03C0
3C03C0
3C03C0
3C03C0
3C03C0
3C03C0
3C03C0
3E07C0
1FFF80
0FFF00
000000
000000
000000
000000
000000
000000
000000
000000
000000
000000
ENDCHAR

STARTCHAR char_0x00D3
ENCODING 211
SWIDTH 1870 0
DWIDTH 20 0
BBX 20 40 0 -10
BITMAP
000000
000000
001E00
003C00
007800
00F000
000000
000000
0FFF00
1FFF80
3E07C0
3C03C0
3C03C0
3C03C0
3C03C0
3C03C0
3C03C0
3C03C0
3C03C0
3C03C0
3C03C0
3C03C0
3C03C0
3C03C0
3C03C0
3C03C0
3C03C0
3E07C0
1FFF80
0FFF00
000000
000000
000000
000000
000000
000000
000000
000000
000000
000000
ENDCHAR

STARTCHAR char_0x00D4
ENCODING 212
SWIDTH 1870 0
DWIDTH 20 0
BBX 20 40 0 -10
BITMAP
000000
000000
00F000
01F800
03FC00
079E00
000000
000000
0FFF00
1FFF80
3E07C0
3C03C0
3C03C0
3C03C0
3C03C0
3C03C0
3C03C0
3C03C0
3C03C0
3C03C0
3C03C0
3C03C0
3C03C0
3C03C0
3C03C0
3C03C0
3C03C0
3E07C0
1FFF80
0FFF00
000000
000000
000000
000000
000000
000000
000000
000000
000000
000000
ENDCHAR

STARTCHAR char_0x00D5
ENCODING 213
SWIDTH 1870 0
DWIDTH 20 0
BBX 20 40 0 -10
BITMAP
000000
000000
03E300
07F300
0CFE00
0C7C00
000000
000000
0FFF00
1FFF80
3E07C0
3C03C0
3C03C0
3C03C0
3C03C0
3C03C0
3C03C0
3C03C0
3C03C0
3C03C0
3C03C0
3C03C0
3C03C0
3C03C0
3C03C0
3C03C0
3C03C0
3E07C0
1FFF80
0FFF00
000000
000000
000000
000000
000000
000000
000000
000000
000000
000000
ENDCHAR

STARTCHAR char_0x00D6
ENCODING 214
SWIDTH 1870 0
DWIDTH 20 0
BBX 20 40 0 -10
BITMAP
000000
000000
060600
0F0F00
0F0F00
060600
000000
000000
0FFF00
1FFF80
3E07C0
3C03C0
3C03C0
3C03C0
3C03C0
3C03C0
3C03C0
3C03C0
3C03C0
3C03C0
3C03C0
3C03C0
3C03C0
3C03C0
3C03C0
3C03C0
3C03C0
3E07C0
1FFF80
0FFF00
000000
000000
000000
000000
000000
000000
000000
000000
000000
000000
ENDCHAR

STARTCHAR char_0x00D7
ENCODING 215
SWIDTH 1870 0
DWIDTH 20 0
BBX 20 40 0 -10
BITMAP
000000
000000
000000
000000
000000
000000
000000
000000
000000
000000
000000
000000
180180
1C0380
0E0700
070E00
039C00
01F800
00F000
00F000
01F800
039C00
070E00
0E0700
1C0380
180180
000000
000000
000000
000000
000000
000000
000000
000000
000000
000000
000000
000000
000000
000000
ENDCHAR

STARTCHAR char_0x00D8
ENCODING 216
SWIDTH 1870 0
DWIDTH 20 0
BBX 20 40 0 -10
BITMAP
000000
000000
000000
000000
000000
000000
000000
000000
01F980
03FD80
070F00
070F00
0F0F00
0F0F00
0F0F00
0F1F00
0F1F00
0F3F00
0F3F00
0F6F00
0F6F00
0FCF00
0FCF00
0F8F00
0F8F00
0F0F00
0F0E00
0F0E00
1FFC00
19F800
000000
000000
000000
000000
000000
000000
000000
000000
000000
000000
ENDCHAR

STARTCHAR char_0x00D9
ENCODING 217
SWIDTH 1870 0
DWIDTH 20 0
BBX 20 40 0 -10
BITMAP
000000
000000
078000
03C000
01E000
00F000
000000
000000
3C03C0
3C03C0
3C03C0
3C03C0
3C03C0
3C03C0
3C03C0
3C03C0
3C03C0
3C03C0
3C03C0
3C03C0
3C03C0
3C03C0
3C03C0
3C03C0
3C03C0
3C03C0
3C03C0
3E07C0
1FFF80
0FFF00
000000
000000
000000
000000
000000
000000
000000
000000
000000
000000
ENDCHAR

STARTCHAR char_0x00DA
ENCODING 218
SWIDTH 1870 0
DWIDTH 20 0
BBX 20 40 0 -10
BITMAP
000000
000000
001E00
003C00
007800
00F000
000000
000000
3C03C0
3C03C0
3C03C0
3C03C0
3C03C0
3C03C0
3C03C0
3C03C0
3C03C0
3C03C0
3C03C0
3C03C0
3C03C0
3C03C0
3C03C0
3C03C0
3C03C0
3C03C0
3C03C0
3E07C0
1FFF80
0FFF00
000000
000000
000000
000000
000000
000000
000000
000000
000000
000000
ENDCHAR

STARTCHAR char_0x00DB
ENCODING 219
SWIDTH 1870 0
DWIDTH 20 0
BBX 20 40 0 -10
BITMAP
000000
000000
00F000
01F800
03FC00
079E00
000000
000000
3C03C0
3C03C0
3C03C0
3C03C0
3C03C0
3C03C0
3C03C0
3C03C0
3C03C0
3C03C0
3C03C0
3C03C0
3C03C0
3C03C0
3C03C0
3C03C0
3C03C0
3C03C0
3C03C0
3E07C0
1FFF80
0FFF00
000000
000000
000000
000000
000000
000000
000000
000000
000000
000000
ENDCHAR

STARTCHAR char_0x00DC
ENCODING 220
SWIDTH 1870 0
DWIDTH 20 0
BBX 20 40 0 -10
BITMAP
000000
000000
060600
0F0F00
0F0F00
060600
000000
000000
3C03C0
3C03C0
3C03C0
3C03C0
3C03C0
3C03C0
3C03C0
3C03C0
3C03C0
3C03C0
3C03C0
3C03C0
3C03C0
3C03C0
3C03C0
3C03C0
3C03C0
3C03C0
3C03C0
3E07C0
1FFF80
0FFF00
000000
000000
000000
000000
000000
000000
000000
000000
000000
000000
ENDCHAR

STARTCHAR char_0x00DD
ENCODING 221
SWIDTH 1870 0
DWIDTH 20 0
BBX 20 40 0 -10
BITMAP
000000
000000
001E00
003C00
007800
00F000
000000
000000
3C03C0
3C03C0
3C03C0
3C03C0
3C03C0
3C03C0
3C03C0
3C03C0
3C03C0
1E0780
0F0F00
079E00
03FC00
01F800
00F000
00F000
00F000
00F000
00F000
00F000
00F000
00F000
000000
000000
000000
000000
000000
000000
000000
000000
000000
000000
ENDCHAR

STARTCHAR char_0x00DE
ENCODING 222
SWIDTH 1870 0
DWIDTH 20 0
BBX 20 40 0 -10
BITMAP
000000
000000
000000
000000
000000
000000
000000
000000
3FC000
3FC000
0F0000
0F0000
0FFF00
0FFF80
0F07C0
0F03C0
0F03C0
0F03C0
0F03C0
0F03C0
0F03C0
0F07C0
0FFF80
0FFF00
0F0000
0F0000
0F0000
0F0000
3FC000
3FC000
000000
000000
000000
000000
000000
000000
000000
000000
000000
000000
ENDCHAR

STARTCHAR char_0x00DF
ENCODING 223
SWIDTH 1870 0
DWIDTH 20 0
BBX 20 40 0 -10
BITMAP
000000
000000
000000
000000
000000
060000
076000
03E000
03C000
07E000
067000
003800
001C00
001E00
01FF00
07FF80
0F0780
1E03C0
1C03C0
3C03C0
3C03C0
3C03C0
3C03C0
3C03C0
3C03C0
3C03C0
1C07C0
1E0F80
0FFF00
07FE00
000000
000000
000000
000000
000000
000000
000000
000000
000000
000000
ENDCHAR

STARTCHAR char_0x00E0
ENCODING 224
SWIDTH 1870 0
DWIDTH 20 0
BBX 20 40 0 -10
BITMAP
000000
000000
000000
000000
000000
000000
000000
000000
03C000
01E000
00F000
007800
000000
000000
07FF00
0FFF80
0F07C0
0F03C0
0003C0
0003C0
0FFFC0
1FFFC0
3E03C0
3C03C0
3C03C0
3C03C0
3C03C0
3E03C0
1FFFF0
0FFFF0
000000
000000
000000
000000
000000
000000
000000
000000
000000
000000
ENDCHAR

STARTCHAR char_0x00E1
ENCODING 225
SWIDTH 1870 0
DWIDTH 20 0
BBX 20 40 0 -10
BITMAP
000000
000000
000000
000000
000000
000000
000000
000000
001E00
003C00
007800
00F000
000000
000000
07FF00
0FFF80
0F07C0
0F03C0
0003C0
0003C0
0FFFC0
1FFFC0
3E03C0
3C03C0
3C03C0
3C03C0
3C03C0
3E03C0
1FFFF0
0FFFF0
000000
000000
000000
000000
000000
000000
000000
000000
000000
000000
ENDCHAR

STARTCHAR char_0x00E2
ENCODING 226
SWIDTH 1870 0
DWIDTH 20 0
BBX 20 40 0 -10
BITMAP
000000
000000
000000
000000
000000
000000
000000
000000
007800
00FC00
01FE00
03CF00
000000
000000
03FF00
07FF80
0F0780
0F03C0
0003C0
0003C0
0FFFC0
1FFFC0
3E03C0
3C03C0
3C03C0
3C03C0
3C03C0
3E03C0
1FFFF0
0FFFF0
000000
000000
000000
000000
000000
000000
000000
000000
000000
000000
ENDCHAR

STARTCHAR char_0x00E3
ENCODING 227
SWIDTH 1870 0
DWIDTH 20 0
BBX 20 40 0 -10
BITMAP
000000
000000
000000
000000
000000
000000
000000
000000
03E100
07F300
0CFE00
087C00
000000
000000
03FF00
07FF80
0F0780
0F03C0
0003C0
0003C0
0FFFC0
1FFFC0
3E03C0
3C03C0
3C03C0
3C03C0
3C03C0
3E03C0
1FFFF0
0FFFF0
000000
000000
000000
000000
000000
000000
000000
000000
000000
000000
ENDCHAR

STARTCHAR char_0x00E4
ENCODING 228
SWIDTH 1870 0
DWIDTH 20 0
BBX 20 40 0 -10
BITMAP
000000
000000
000000
000000
000000
000000
000000
000000
018600
03CF00
03CF00
018600
000000
000000
03FF00
07FF80
0F07C0
0F03C0
0003C0
0003C0
0FFFC0
1FFFC0
3E03C0
3C03C0
3C03C0
3C03C0
3C03C0
3E03C0
1FFFF0
0FFFF0
000000
000000
000000
000000
000000
000000
000000
000000
000000
000000
ENDCHAR

STARTCHAR char_0x00E5
ENCODING 229
SWIDTH 1870 0
DWIDTH 20 0
BBX 20 40 0 -10
BITMAP
000000
000000
000000
000000
000000
000000
000000
000000
006000
00F000
00F000
006000
000000
000000
03FF00
07FF80
0F07C0
0F03C0
0003C0
0003C0
0FFFC0
1FFFC0
3E03C0
3C03C0
3C03C0
3C03C0
3C03C0
3E03C0
1FFFF0
0FFFF0
000000
000000
000000
000000
000000
000000
000000
000000
000000
000000
ENDCHAR

STARTCHAR char_0x00E6
ENCODING 230
SWIDTH 1870 0
DWIDTH 20 0
BBX 20 40 0 -10
BITMAP
000000
000000
000000
000000
000000
000000
000000
000000
000000
000000
000000
000000
000000
000000
0FFF00
1FFF80
3CF3C0
3CF1C0
00F1C0
00F1C0
0FFFC0
1FFFC0
3CF000
3CF000
3CF000
3CF000
3CF0C0
3CF9C0
1FFF80
0FFF00
000000
000000
000000
000000
000000
000000
000000
000000
000000
000000
ENDCHAR

STARTCHAR char_0x00E7
ENCODING 231
SWIDTH 1870 0
DWIDTH 20 0
BBX 20 40 0 -10
BITMAP
000000
000000
000000
000000
000000
000000
000000
000000
000000
000000
000000
000000
000000
000000
07FF00
0FFF80
1E07C0
1C03C0
3C0000
3C0000
3C0000
3C0000
3C0000
3C0000
3C0000
3C0000
1C03C0
1E07C0
0FFF80
07FF00
001E00
003C00
00F800
00F000
000000
000000
000000
000000
000000
000000
ENDCHAR

STARTCHAR char_0x00E8
ENCODING 232
SWIDTH 1870 0
DWIDTH 20 0
BBX 20 40 0 -10
BITMAP
000000
000000
000000
000000
000000
000000
000000
000000
03C000
01E000
00F000
007800
000000
000000
03FE00
07FF00
0E0780
1C0380
3C03C0
3C03C0
3FFFC0
3FFFC0
3C0000
3C0000
3C0000
3C0000
1E03C0
1F07C0
0FFF80
07FF00
000000
000000
000000
000000
000000
000000
000000
000000
000000
000000
ENDCHAR

STARTCHAR char_0x00E9
ENCODING 233
SWIDTH 1870 0
DWIDTH 20 0
BBX 20 40 0 -10
BITMAP
000000
000000
000000
000000
000000
000000
000000
000000
001E00
003C00
007800
00F000
000000
000000
03FE00
07FF00
1E0780
1C03C0
3C03C0
3C03C0
3FFFC0
3FFFC0
3C0000
3C0000
3C0000
3C0000
1E03C0
1F07C0
0FFF80
07FF00
000000
000000
000000
000000
000000
000000
000000
000000
000000
000000
ENDCHAR

STARTCHAR char_0x00EA
ENCODING 234
SWIDTH 1870 0
DWIDTH 20 0
BBX 20 40 0 -10
BITMAP
000000
000000
000000
000000
000000
000000
000000
000000
00F000
01F800
03FC00
079E00
000000
000000
07FE00
0FFF00
1E0780
1C0380
3C03C0
3C03C0
3FFFC0
3FFFC0
3C0000
3C0000
3C0000
3C0000
1E03C0
1F07C0
0FFF80
07FF00
000000
000000
000000
000000
000000
000000
000000
000000
000000
000000
ENDCHAR

STARTCHAR char_0x00EB
ENCODING 235
SWIDTH 1870 0
DWIDTH 20 0
BBX 20 40 0 -10
BITMAP
000000
000000
000000
000000
000000
000000
000000
000000
030600
078F00
078F00
030600
000000
000000
07FE00
0FFF00
1E0780
1C0380
3C03C0
3C03C0
3FFFC0
3FFFC0
3C0000
3C0000
3C0000
3C0000
1E03C0
1F07C0
0FFF80
07FF00
000000
000000
000000
000000
000000
000000
000000
000000
000000
000000
ENDCHAR

STARTCHAR char_0x00EC
ENCODING 236
SWIDTH 1870 0
DWIDTH 20 0
BBX 20 40 0 -10
BITMAP
000000
000000
000000
000000
000000
000000
000000
000000
078000
03C000
01E000
00F000
000000
000000
0FF000
0FF000
00F000
00F000
00F000
00F000
00F000
00F000
00F000
00F000
00F000
00F000
00F000
00F000
3FFFC0
3FFFC0
000000
000000
000000
000000
000000
000000
000000
000000
000000
000000
ENDCHAR

STARTCHAR char_0x00ED
ENCODING 237
SWIDTH 1870 0
DWIDTH 20 0
BBX 20 40 0 -10
BITMAP
000000
000000
000000
000000
000000
000000
000000
000000
001E00
003C00
007800
00F000
000000
000000
0FF000
0FF000
00F000
00F000
00F000
00F000
00F000
00F000
00F000
00F000
00F000
00F000
00F000
00F000
3FFFC0
3FFFC0
000000
000000
000000
000000
000000
000000
000000
000000
000000
000000
ENDCHAR

STARTCHAR char_0x00EE
ENCODING 238
SWIDTH 1870 0
DWIDTH 20 0
BBX 20 40 0 -10
BITMAP
000000
000000
000000
000000
000000
000000
000000
000000
01E000
03F000
07F800
0F3C00
000000
000000
0FF000
0FF000
00F000
00F000
00F000
00F000
00F000
00F000
00F000
00F000
00F000
00F000
00F000
00F000
3FFFC0
3FFFC0
000000
000000
000000
000000
000000
000000
000000
000000
000000
000000
ENDCHAR

STARTCHAR char_0x00EF
ENCODING 239
SWIDTH 1870 0
DWIDTH 20 0
BBX 20 40 0 -10
BITMAP
000000
000000
000000
000000
000000
000000
000000
000000
061800
0F3C00
0F3C00
061800
000000
000000
0FF000
0FF000
00F000
00F000
00F000
00F000
00F000
00F000
00F000
00F000
00F000
00F000
00F000
00F000
3FFFC0
3FFFC0
000000
000000
000000
000000
000000
000000
000000
000000
000000
000000
ENDCHAR

STARTCHAR char_0x00F0
ENCODING 240
SWIDTH 1870 0
DWIDTH 20 0
BBX 20 40 0 -10
BITMAP
000000
000000
000000
000000
000000
060000
076000
03E000
03C000
07E000
067000
003800
001C00
001E00
01FF00
07FF80
0F0780
1E03C0
1C03C0
3C03C0
3C03C0
3C03C0
3C03C0
3C03C0
3C03C0
3C03C0
1C07C0
1E0F80
0FFF00
07FE00
000000
000000
000000
000000
000000
000000
000000
000000
000000
000000
ENDCHAR

STARTCHAR char_0x00F1
ENCODING 241
SWIDTH 1870 0
DWIDTH 20 0
BBX 20 40 0 -10
BITMAP
000000
000000
000000
000000
000000
000000
000000
000000
03E300
07F300
0CFE00
0C7C00
000000
000000
0F7F00
0FFF80
0F87C0
0F03C0
0F03C0
0F03C0
0F03C0
0F03C0
0F03C0
0F03C0
0F03C0
0F03C0
0F03C0
0F03C0
0F03C0
0F03C0
000000
000000
000000
000000
000000
000000
000000
000000
000000
000000
ENDCHAR

STARTCHAR char_0x00F2
ENCODING 242
SWIDTH 1870 0
DWIDTH 20 0
BBX 20 40 0 -10
BITMAP
000000
000000
000000
000000
000000
000000
000000
000000
078000
03C000
01E000
00F000
000000
000000
03FC00
07FE00
0E0700
1C0380
1C0380
3C03C0
3C03C0
3C03C0
3C03C0
3C03C0
3C03C0
1C0380
1C0380
0E0700
07FE00
03FC00
000000
000000
000000
000000
000000
000000
000000
000000
000000
000000
ENDCHAR

STARTCHAR char_0x00F3
ENCODING 243
SWIDTH 1870 0
DWIDTH 20 0
BBX 20 40 0 -10
BITMAP
000000
000000
000000
000000
000000
000000
000000
000000
001E00
003C00
007800
00F000
000000
000000
03FC00
07FE00
0E0700
1C0380
1C0380
3C03C0
3C03C0
3C03C0
3C03C0
3C03C0
3C03C0
1C0380
1C0380
0E0700
07FE00
03FC00
000000
000000
000000
000000
000000
000000
000000
000000
000000
000000
ENDCHAR

STARTCHAR char_0x00F4
ENCODING 244
SWIDTH 1870 0
DWIDTH 20 0
BBX 20 40 0 -10
BITMAP
000000
000000
000000
000000
000000
000000
000000
000000
00F000
01F800
03FC00
079E00
000000
000000
03FC00
07FE00
0E0700
1C0380
1C0380
3C03C0
3C03C0
3C03C0
3C03C0
3C03C0
3C03C0
1C0380
1C0380
0E0700
07FE00
03FC00
000000
000000
000000
000000
000000
000000
000000
000000
000000
000000
ENDCHAR

STARTCHAR char_0x00F5
ENCODING 245
SWIDTH 1870 0
DWIDTH 20 0
BBX 20 40 0 -10
BITMAP
000000
000000
000000
000000
000000
000000
000000
000000
03E300
07F300
0CFE00
0C7C00
000000
000000
03FC00
07FE00
0E0700
1C0380
1C0380
3C03C0
3C03C0
3C03C0
3C03C0
3C03C0
3C03C0
1C0380
1C0380
0E0700
07FE00
03FC00
000000
000000
000000
000000
000000
000000
000000
000000
000000
000000
ENDCHAR

STARTCHAR char_0x00F6
ENCODING 246
SWIDTH 1870 0
DWIDTH 20 0
BBX 20 40 0 -10
BITMAP
000000
000000
000000
000000
000000
000000
000000
000000
060600
0F0F00
0F0F00
060600
000000
000000
03FC00
07FE00
0E0700
1C0380
1C0380
3C03C0
3C03C0
3C03C0
3C03C0
3C03C0
3C03C0
1C0380
1C0380
0E0700
07FE00
03FC00
000000
000000
000000
000000
000000
000000
000000
000000
000000
000000
ENDCHAR

STARTCHAR char_0x00F7
ENCODING 247
SWIDTH 1870 0
DWIDTH 20 0
BBX 20 40 0 -10
BITMAP
000000
000000
000000
000000
000000
000000
000000
000000
000000
000000
000000
000000
006000
00F000
00F000
006000
000000
000000
3FFFC0
3FFFC0
000000
000000
006000
00F000
00F000
006000
000000
000000
000000
000000
000000
000000
000000
000000
000000
000000
000000
000000
000000
000000
ENDCHAR

STARTCHAR char_0x00F8
ENCODING 248
SWIDTH 1870 0
DWIDTH 20 0
BBX 20 40 0 -10
BITMAP
000000
000000
000000
000000
000000
000000
000000
000000
000000
000000
000000
000000
000000
000000
00F800
01FD80
039F80
070F00
0F0F00
0F1F00
0F3F00
0F7F00
0FEF00
0FCF00
0F8F00
0F0F00
0F0E00
1F9E00
1BFC00
01F800
000000
000000
000000
000000
000000
000000
000000
000000
000000
000000
ENDCHAR

STARTCHAR char_0x00F9
ENCODING 249
SWIDTH 1870 0
DWIDTH 20 0
BBX 20 40 0 -10
BITMAP
000000
000000
000000
000000
000000
000000
000000
000000
078000
03C000
01E000
00F000
000000
000000
3C03C0
3C03C0
3C03C0
3C03C0
3C03C0
3C03C0
3C03C0
3C03C0
3C03C0
3C03C0
3C03C0
3C03C0
3C03C0
3C07C0
1FFFC0
0FFBC0
000000
000000
000000
000000
000000
000000
000000
000000
000000
000000
ENDCHAR

STARTCHAR char_0x00FA
ENCODING 250
SWIDTH 1870 0
DWIDTH 20 0
BBX 20 40 0 -10
BITMAP
000000
000000
000000
000000
000000
000000
000000
000000
001E00
003C00
007800
00F000
000000
000000
3C03C0
3C03C0
3C03C0
3C03C0
3C03C0
3C03C0
3C03C0
3C03C0
3C03C0
3C03C0
3C03C0
3C03C0
3C03C0
3C07C0
1FFFC0
0FFBC0
000000
000000
000000
000000
000000
000000
000000
000000
000000
000000
ENDCHAR

STARTCHAR char_0x00FB
ENCODING 251
SWIDTH 1870 0
DWIDTH 20 0
BBX 20 40 0 -10
BITMAP
000000
000000
000000
000000
000000
000000
000000
000000
00F000
01F800
03FC00
079E00
000000
000000
3C03C0
3C03C0
3C03C0
3C03C0
3C03C0
3C03C0
3C03C0
3C03C0
3C03C0
3C03C0
3C03C0
3C03C0
3C03C0
3C07C0
1FFFC0
0FFBC0
000000
000000
000000
000000
000000
000000
000000
000000
000000
000000
ENDCHAR

STARTCHAR char_0x00FC
ENCODING 252
SWIDTH 1870 0
DWIDTH 20 0
BBX 20 40 0 -10
BITMAP
000000
000000
000000
000000
000000
000000
000000
000000
060600
0F0F00
0F0F00
060600
000000
000000
3C03C0
3C03C0
3C03C0
3C03C0
3C03C0
3C03C0
3C03C0
3C03C0
3C03C0
3C03C0
3C03C0
3C03C0
3C03C0
3C07C0
1FFFC0
0FFBC0
000000
000000
000000
000000
000000
000000
000000
000000
000000
000000
ENDCHAR

STARTCHAR char_0x00FD
ENCODING 253
SWIDTH 1870 0
DWIDTH 20 0
BBX 20 40 0 -10
BITMAP
000000
000000
000000
000000
000000
000000
000000
000000
003C00
007800
00F000
01E000
000000
000000
3C03C0
3C03C0
3C03C0
3C03C0
3C03C0
3C03C0
3C03C0
3C03C0
3C03C0
3C03C0
3C03C0
3C03C0
3C03C0
3C07C0
1FFFC0
0FFBC0
0003C0
0003C0
1803C0
3C0380
3C0780
3C0F00
1FFE00
0FFC00
000000
000000
ENDCHAR

STARTCHAR char_0x00FE
ENCODING 254
SWIDTH 1870 0
DWIDTH 20 0
BBX 20 40 0 -10
BITMAP
000000
000000
000000
000000
000000
000000
000000
000000
000000
000000
000000
000000
000000
000000
3FC000
3FC000
0F0000
0F0000
0FFE00
0FFF00
0F0780
0F03C0
0F03C0
0F03C0
0F03C0
0F03C0
0F03C0
0F0780
0FFF00
0FFE00
0F0000
0F0000
0F0000
0F0000
0F0000
0F0000
3FC000
3FC000
000000
000000
ENDCHAR

STARTCHAR char_0x00FF
ENCODING 255
SWIDTH 1870 0
DWIDTH 20 0
BBX 20 40 0 -10
BITMAP
000000
000000
000000
000000
000000
000000
000000
000000
060600
0F0F00
0F0F00
060600
000000
000000
3C03C0
3C03C0
3C03C0
3C03C0
3C03C0
3C03C0
3C03C0
3C03C0
3C03C0
3C03C0
3C03C0
3C03C0
3C03C0
3C07C0
1FFFC0
0FFBC0
0003C0
0003C0
1803C0
3C0380
3C0780
3C0F00
1FFE00
0FFC00
000000
000000
ENDCHAR
ENDFONT
